<svg width="996" height="639" viewBox="0 0 996 639" fill="none" xmlns="http://www.w3.org/2000/svg">
<g clip-path="url(#clip0)">
<rect width="996" height="639" fill="#E4F7FD"/>
<rect x="36" y="62" width="149" height="56" rx="15" fill="#BCE0EC"/>
<rect x="364" y="233" width="149" height="56" rx="15" fill="#00769B"/>
<rect x="177" y="435" width="149" height="56" rx="15" fill="#00769B"/>
<path d="M356 147C356 145.895 356.895 145 358 145H503C504.105 145 505 145.895 505 147V199C505 200.105 504.105 201 503 201H358C356.895 201 356 200.105 356 199V147Z" fill="#F1F9FC"/>
<rect x="437" y="448" width="149" height="63" fill="#98009B"/>
<rect x="754.499" y="404" width="62.6306" height="63" transform="rotate(89.6038 754.499 404)" fill="#ECB22E"/>
<rect x="889.999" y="300" width="62.6306" height="63" transform="rotate(89.6038 889.999 300)" fill="#ECB22E"/>
<rect x="437" y="530" width="149" height="63" fill="#98009B"/>
<rect x="439" y="341" width="149" height="63" fill="#98009B"/>
<path d="M69.87 98V82.6H79.11V84.58H72.95V89.2H77.79V91.18H72.95V98H69.87ZM83.4086 98V82.6H86.4886V96.02H92.4286V98H83.4086ZM100.89 98.22C99.0567 98.22 97.6267 97.582 96.6 96.306C95.5733 95.0153 95.06 93.0133 95.06 90.3C95.06 87.5867 95.5733 85.592 96.6 84.316C97.6267 83.0253 99.0567 82.38 100.89 82.38C102.723 82.38 104.153 83.0253 105.18 84.316C106.207 85.592 106.72 87.5867 106.72 90.3C106.72 93.0133 106.207 95.0153 105.18 96.306C104.153 97.582 102.723 98.22 100.89 98.22ZM100.89 96.24C101.697 96.24 102.357 95.7853 102.87 94.876C103.383 93.9667 103.64 92.4413 103.64 90.3C103.64 88.1587 103.383 86.6333 102.87 85.724C102.357 84.8147 101.697 84.36 100.89 84.36C100.083 84.36 99.4233 84.8147 98.91 85.724C98.3967 86.6333 98.14 88.1587 98.14 90.3C98.14 92.4413 98.3967 93.9667 98.91 94.876C99.4233 95.7853 100.083 96.24 100.89 96.24ZM110.391 82.6H113.471L115.671 92.28C115.73 92.5587 115.774 92.8447 115.803 93.138L115.847 93.6H115.935L115.979 93.138C116.009 92.8447 116.053 92.5587 116.111 92.28L118.553 82.6H120.709L123.151 92.28C123.225 92.5733 123.269 92.8593 123.283 93.138L123.327 93.6H123.415L123.459 93.138C123.474 92.8593 123.518 92.5733 123.591 92.28L125.791 82.6H128.563L124.823 98H122.051L119.741 88.43C119.683 88.1953 119.639 87.8873 119.609 87.506L119.565 87H119.477L119.433 87.506C119.404 87.8873 119.36 88.1953 119.301 88.43L116.991 98H114.131L110.391 82.6ZM148.855 96.46C148.855 95.6093 149.038 94.8393 149.405 94.15C149.786 93.446 150.241 92.8447 150.769 92.346C151.312 91.8327 152.008 91.2387 152.859 90.564C153.563 90.0067 154.113 89.552 154.509 89.2C154.905 88.8333 155.235 88.43 155.499 87.99C155.763 87.5353 155.895 87.0587 155.895 86.56C155.895 85.8853 155.675 85.35 155.235 84.954C154.81 84.558 154.186 84.36 153.365 84.36C152.514 84.36 151.737 84.5287 151.033 84.866C150.696 85.0567 150.446 85.218 150.285 85.35H150.065L149.075 83.59C149.412 83.3553 149.794 83.1573 150.219 82.996C151.172 82.5853 152.294 82.38 153.585 82.38C155.36 82.38 156.702 82.776 157.611 83.568C158.52 84.3453 158.975 85.416 158.975 86.78C158.975 87.5573 158.784 88.276 158.403 88.936C158.022 89.596 157.567 90.168 157.039 90.652C156.511 91.136 155.807 91.708 154.927 92.368C154.238 92.896 153.695 93.3287 153.299 93.666C152.918 94.0033 152.595 94.3773 152.331 94.788C152.067 95.184 151.935 95.5947 151.935 96.02H158.975V98H148.855V96.46Z" fill="black"/>
<path d="M448.615 530.7H452.225C453.986 530.7 455.278 531.061 456.101 531.783C456.937 532.505 457.355 533.569 457.355 534.975C457.355 536.28 456.943 537.306 456.12 538.053C455.753 538.382 455.341 538.623 454.885 538.775L458.115 544H455.075L452.32 539.25H451.275V544H448.615V530.7ZM452.225 537.54C453.099 537.54 453.726 537.344 454.106 536.951C454.499 536.546 454.695 535.887 454.695 534.975C454.695 534.063 454.499 533.411 454.106 533.018C453.726 532.613 453.099 532.41 452.225 532.41H451.275V537.54H452.225ZM465.613 544.19C462.446 544.19 460.863 542.543 460.863 539.25C460.863 537.629 461.23 536.4 461.965 535.564C462.699 534.728 463.725 534.31 465.043 534.31C466.347 534.31 467.367 534.715 468.102 535.526C468.849 536.337 469.223 537.515 469.223 539.06V539.535L468.653 540.105H463.523C463.523 541.688 464.283 542.48 465.803 542.48C466.335 542.48 466.822 542.353 467.266 542.1C467.443 542.011 467.62 541.885 467.798 541.72H467.988L468.843 543.24C468.488 543.455 468.184 543.614 467.931 543.715C467.171 544.032 466.398 544.19 465.613 544.19ZM466.563 538.395C466.563 537.635 466.411 537.052 466.107 536.647C465.815 536.229 465.461 536.02 465.043 536.02C464.625 536.02 464.264 536.229 463.96 536.647C463.668 537.052 463.523 537.635 463.523 538.395H466.563ZM473.014 534.5H474.914L475.104 535.64H475.199C475.338 535.437 475.541 535.216 475.807 534.975C476.351 534.532 476.94 534.31 477.574 534.31C478.346 534.31 478.992 534.532 479.512 534.975C479.74 535.19 479.917 535.412 480.044 535.64C480.221 535.425 480.468 535.203 480.785 534.975C481.494 534.532 482.197 534.31 482.894 534.31C483.958 534.31 484.794 534.627 485.402 535.26C486.01 535.893 486.314 536.78 486.314 537.92V544H483.654V537.92C483.654 537.337 483.533 536.894 483.293 536.59C483.065 536.273 482.773 536.115 482.419 536.115C482.077 536.115 481.735 536.273 481.393 536.59C481.304 536.679 481.171 536.837 480.994 537.065V544H478.334V537.92C478.334 537.337 478.213 536.894 477.973 536.59C477.745 536.273 477.453 536.115 477.099 536.115C476.693 536.115 476.339 536.305 476.035 536.685C475.87 536.9 475.75 537.09 475.674 537.255V544H473.014V534.5ZM491.918 533.265C491.538 533.265 491.202 533.126 490.911 532.847C490.632 532.556 490.493 532.22 490.493 531.84C490.493 531.46 490.632 531.131 490.911 530.852C491.202 530.561 491.538 530.415 491.918 530.415C492.298 530.415 492.627 530.561 492.906 530.852C493.197 531.131 493.343 531.46 493.343 531.84C493.343 532.22 493.197 532.556 492.906 532.847C492.627 533.126 492.298 533.265 491.918 533.265ZM490.588 544V534.5H493.248V544H490.588ZM497.623 534.5H499.523L499.713 535.64H499.808C499.935 535.45 500.15 535.228 500.454 534.975C501.049 534.532 501.689 534.31 502.373 534.31C503.526 534.31 504.412 534.627 505.033 535.26C505.666 535.881 505.983 536.767 505.983 537.92V544H503.323V537.92C503.323 537.325 503.196 536.875 502.943 536.571C502.69 536.267 502.341 536.115 501.898 536.115C501.48 536.115 501.081 536.305 500.701 536.685C500.574 536.837 500.435 537.027 500.283 537.255V544H497.623V534.5ZM513.492 544.19C512.352 544.19 511.434 543.772 510.737 542.936C510.04 542.087 509.692 540.859 509.692 539.25C509.692 537.629 510.047 536.4 510.756 535.564C511.478 534.728 512.453 534.31 513.682 534.31C513.948 534.31 514.176 534.335 514.366 534.386C514.569 534.437 514.797 534.506 515.05 534.595L515.582 534.88V531.46L516.342 530.7H518.242V544H516.342L516.152 542.86H516.057C515.842 543.139 515.626 543.36 515.411 543.525C514.879 543.968 514.239 544.19 513.492 544.19ZM513.967 542.385C514.385 542.385 514.784 542.195 515.164 541.815C515.291 541.663 515.43 541.473 515.582 541.245V536.59L515.183 536.305C514.828 536.115 514.486 536.02 514.157 536.02C513.587 536.02 513.144 536.267 512.827 536.761C512.51 537.255 512.352 538.085 512.352 539.25C512.352 540.352 512.498 541.15 512.789 541.644C513.093 542.138 513.486 542.385 513.967 542.385ZM526.784 544.19C523.617 544.19 522.034 542.543 522.034 539.25C522.034 537.629 522.401 536.4 523.136 535.564C523.87 534.728 524.896 534.31 526.214 534.31C527.518 534.31 528.538 534.715 529.273 535.526C530.02 536.337 530.394 537.515 530.394 539.06V539.535L529.824 540.105H524.694C524.694 541.688 525.454 542.48 526.974 542.48C527.506 542.48 527.993 542.353 528.437 542.1C528.614 542.011 528.791 541.885 528.969 541.72H529.159L530.014 543.24C529.659 543.455 529.355 543.614 529.102 543.715C528.342 544.032 527.569 544.19 526.784 544.19ZM527.734 538.395C527.734 537.635 527.582 537.052 527.278 536.647C526.986 536.229 526.632 536.02 526.214 536.02C525.796 536.02 525.435 536.229 525.131 536.647C524.839 537.052 524.694 537.635 524.694 538.395H527.734ZM534.185 534.5H536.085L536.275 535.64H536.37C536.496 535.45 536.712 535.228 537.016 534.975C537.611 534.532 538.251 534.31 538.935 534.31C539.264 534.31 539.587 534.342 539.904 534.405C540.106 534.456 540.258 534.487 540.36 534.5L539.98 536.4H539.79C539.676 536.387 539.536 536.356 539.372 536.305C539.093 536.242 538.789 536.21 538.46 536.21C538.042 536.21 537.643 536.4 537.263 536.78C537.136 536.932 536.997 537.122 536.845 537.35V544H534.185V534.5ZM448.615 554.7H452.415C454.201 554.7 455.499 555.067 456.31 555.802C457.133 556.537 457.545 557.658 457.545 559.165C457.545 560.672 457.133 561.793 456.31 562.528C455.499 563.263 454.201 563.63 452.415 563.63H451.275V568H448.615V554.7ZM452.415 561.92C453.289 561.92 453.916 561.711 454.296 561.293C454.689 560.862 454.885 560.153 454.885 559.165C454.885 558.177 454.689 557.474 454.296 557.056C453.916 556.625 453.289 556.41 452.415 556.41H451.275V561.92H452.415ZM463.914 568.19C462.799 568.19 461.931 567.924 461.311 567.392C460.703 566.847 460.399 566.132 460.399 565.245C460.399 564.295 460.741 563.554 461.425 563.022C462.121 562.477 463.204 562.205 464.674 562.205H466.004V561.92C466.004 561.249 465.858 560.767 465.567 560.476C465.275 560.172 464.819 560.02 464.199 560.02C463.667 560.02 463.179 560.147 462.736 560.4C462.558 560.489 462.381 560.615 462.204 560.78H462.014L461.159 559.26C461.463 559.057 461.76 558.899 462.052 558.785C462.875 558.468 463.654 558.31 464.389 558.31C465.275 558.31 466.042 558.468 466.688 558.785C467.334 559.089 467.821 559.513 468.151 560.058C468.493 560.603 468.664 561.223 468.664 561.92V568H466.764L466.574 566.86H466.479C466.263 567.139 466.048 567.36 465.833 567.525C465.301 567.968 464.661 568.19 463.914 568.19ZM464.389 566.385C464.781 566.385 465.168 566.195 465.548 565.815C465.725 565.638 465.877 565.448 466.004 565.245V563.915H464.674C463.597 563.915 463.059 564.358 463.059 565.245C463.059 565.587 463.173 565.866 463.401 566.081C463.641 566.284 463.971 566.385 464.389 566.385ZM476.549 568.19C475.397 568.19 474.504 567.88 473.87 567.259C473.25 566.626 472.939 565.733 472.939 564.58V558.5H475.599V564.58C475.599 565.175 475.726 565.625 475.979 565.929C476.233 566.233 476.581 566.385 477.024 566.385C477.442 566.385 477.841 566.195 478.221 565.815C478.348 565.663 478.487 565.473 478.639 565.245V558.5H481.299V568H479.399L479.209 566.86H479.114C478.899 567.139 478.684 567.36 478.468 567.525C477.936 567.968 477.297 568.19 476.549 568.19ZM488.806 568.19C487.805 568.19 486.868 568.032 485.994 567.715C485.665 567.601 485.304 567.443 484.911 567.24L485.766 565.72H485.956C486.197 565.872 486.425 565.999 486.64 566.1C487.172 566.353 487.799 566.48 488.521 566.48C489.154 566.48 489.61 566.385 489.889 566.195C490.18 565.992 490.326 565.733 490.326 565.416C490.326 565.112 490.168 564.871 489.851 564.694C489.534 564.517 489.047 564.327 488.388 564.124C487.691 563.896 487.128 563.681 486.697 563.478C486.266 563.275 485.893 562.984 485.576 562.604C485.259 562.224 485.101 561.743 485.101 561.16C485.101 560.311 485.437 559.627 486.108 559.108C486.779 558.576 487.774 558.31 489.091 558.31C489.889 558.31 490.75 558.468 491.675 558.785C491.992 558.899 492.334 559.057 492.701 559.26L491.846 560.78H491.656C491.428 560.615 491.213 560.489 491.01 560.4C490.478 560.147 489.902 560.02 489.281 560.02C488.787 560.02 488.407 560.115 488.141 560.305C487.888 560.482 487.761 560.704 487.761 560.97C487.761 561.261 487.913 561.496 488.217 561.673C488.534 561.85 489.028 562.047 489.699 562.262C490.37 562.477 490.928 562.693 491.371 562.908C491.814 563.111 492.194 563.402 492.511 563.782C492.828 564.162 492.986 564.643 492.986 565.226C492.986 566.138 492.644 566.86 491.96 567.392C491.276 567.924 490.225 568.19 488.806 568.19ZM500.783 568.19C497.616 568.19 496.033 566.543 496.033 563.25C496.033 561.629 496.4 560.4 497.135 559.564C497.869 558.728 498.895 558.31 500.213 558.31C501.517 558.31 502.537 558.715 503.272 559.526C504.019 560.337 504.393 561.515 504.393 563.06V563.535L503.823 564.105H498.693C498.693 565.688 499.453 566.48 500.973 566.48C501.505 566.48 501.992 566.353 502.436 566.1C502.613 566.011 502.79 565.885 502.968 565.72H503.158L504.013 567.24C503.658 567.455 503.354 567.614 503.101 567.715C502.341 568.032 501.568 568.19 500.783 568.19ZM501.733 562.395C501.733 561.635 501.581 561.052 501.277 560.647C500.985 560.229 500.631 560.02 500.213 560.02C499.795 560.02 499.434 560.229 499.13 560.647C498.838 561.052 498.693 561.635 498.693 562.395H501.733ZM511.414 568.19C510.274 568.19 509.355 567.772 508.659 566.936C507.962 566.087 507.614 564.859 507.614 563.25C507.614 561.629 507.968 560.4 508.678 559.564C509.4 558.728 510.375 558.31 511.604 558.31C511.87 558.31 512.098 558.335 512.288 558.386C512.49 558.437 512.718 558.506 512.972 558.595L513.504 558.88V555.46L514.264 554.7H516.164V568H514.264L514.074 566.86H513.979C513.763 567.139 513.548 567.36 513.333 567.525C512.801 567.968 512.161 568.19 511.414 568.19ZM511.889 566.385C512.307 566.385 512.706 566.195 513.086 565.815C513.212 565.663 513.352 565.473 513.504 565.245V560.59L513.105 560.305C512.75 560.115 512.408 560.02 512.079 560.02C511.509 560.02 511.065 560.267 510.749 560.761C510.432 561.255 510.274 562.085 510.274 563.25C510.274 564.352 510.419 565.15 510.711 565.644C511.015 566.138 511.407 566.385 511.889 566.385ZM448.615 579.7H451.465L454.79 587.68L455.132 588.516L455.284 588.915H455.36L455.303 588.516C455.278 588.364 455.265 588.085 455.265 587.68V579.7H457.925V593H455.075L451.75 585.02L451.408 584.184L451.256 583.785H451.18L451.218 584.184C451.256 584.678 451.275 584.957 451.275 585.02V593H448.615V579.7ZM466.383 593.19C464.977 593.19 463.894 592.778 463.134 591.955C462.387 591.132 462.013 589.897 462.013 588.25C462.013 586.603 462.387 585.368 463.134 584.545C463.894 583.722 464.977 583.31 466.383 583.31C467.789 583.31 468.866 583.722 469.613 584.545C470.373 585.368 470.753 586.603 470.753 588.25C470.753 589.897 470.373 591.132 469.613 591.955C468.866 592.778 467.789 593.19 466.383 593.19ZM466.383 591.48C467.523 591.48 468.093 590.403 468.093 588.25C468.093 586.097 467.523 585.02 466.383 585.02C465.243 585.02 464.673 586.097 464.673 588.25C464.673 590.403 465.243 591.48 466.383 591.48ZM478.259 593.19C477.169 593.19 476.308 592.892 475.675 592.297C475.054 591.702 474.744 590.923 474.744 589.96V585.21H473.509V584.07L476.359 581.22H477.404V583.5H479.589V585.21H477.404V589.96C477.404 590.467 477.499 590.847 477.689 591.1C477.879 591.353 478.132 591.48 478.449 591.48C478.829 591.48 479.202 591.353 479.57 591.1C479.734 590.986 479.899 590.859 480.064 590.72H480.254L481.109 592.24C480.779 592.455 480.494 592.614 480.254 592.715C479.57 593.032 478.905 593.19 478.259 593.19ZM485.479 582.265C485.099 582.265 484.764 582.126 484.472 581.847C484.194 581.556 484.054 581.22 484.054 580.84C484.054 580.46 484.194 580.131 484.472 579.852C484.764 579.561 485.099 579.415 485.479 579.415C485.859 579.415 486.189 579.561 486.467 579.852C486.759 580.131 486.904 580.46 486.904 580.84C486.904 581.22 486.759 581.556 486.467 581.847C486.189 582.126 485.859 582.265 485.479 582.265ZM484.149 593V583.5H486.809V593H484.149ZM491.28 585.21H490.235V583.5H491.28V582.74C491.28 581.765 491.603 580.986 492.249 580.403C492.907 579.808 493.819 579.51 494.985 579.51C495.58 579.51 496.245 579.668 496.98 579.985C497.22 580.086 497.505 580.245 497.835 580.46L496.98 581.98H496.79C496.625 581.841 496.46 581.714 496.296 581.6C495.928 581.347 495.555 581.22 495.175 581.22C494.833 581.22 494.541 581.359 494.301 581.638C494.06 581.904 493.94 582.271 493.94 582.74V583.5H496.315V585.21H493.94V593H491.28V585.21ZM501.164 582.265C500.784 582.265 500.448 582.126 500.157 581.847C499.878 581.556 499.739 581.22 499.739 580.84C499.739 580.46 499.878 580.131 500.157 579.852C500.448 579.561 500.784 579.415 501.164 579.415C501.544 579.415 501.873 579.561 502.152 579.852C502.443 580.131 502.589 580.46 502.589 580.84C502.589 581.22 502.443 581.556 502.152 581.847C501.873 582.126 501.544 582.265 501.164 582.265ZM499.834 593V583.5H502.494V593H499.834ZM510.954 593.19C507.851 593.19 506.299 591.543 506.299 588.25C506.299 586.603 506.679 585.368 507.439 584.545C508.199 583.722 509.308 583.31 510.764 583.31C511.486 583.31 512.259 583.468 513.082 583.785C513.336 583.886 513.64 584.045 513.994 584.26L513.139 585.78H512.949C512.772 585.615 512.595 585.489 512.417 585.4C511.974 585.147 511.486 585.02 510.954 585.02C510.308 585.02 509.814 585.267 509.472 585.761C509.13 586.242 508.959 587.072 508.959 588.25C508.959 589.441 509.137 590.277 509.491 590.758C509.846 591.239 510.397 591.48 511.144 591.48C511.676 591.48 512.164 591.353 512.607 591.1C512.785 591.011 512.962 590.885 513.139 590.72H513.329L514.184 592.24C513.83 592.455 513.526 592.614 513.272 592.715C512.512 593.032 511.74 593.19 510.954 593.19ZM520.542 593.19C519.427 593.19 518.56 592.924 517.939 592.392C517.331 591.847 517.027 591.132 517.027 590.245C517.027 589.295 517.369 588.554 518.053 588.022C518.75 587.477 519.833 587.205 521.302 587.205H522.632V586.92C522.632 586.249 522.486 585.767 522.195 585.476C521.904 585.172 521.448 585.02 520.827 585.02C520.295 585.02 519.807 585.147 519.364 585.4C519.187 585.489 519.009 585.615 518.832 585.78H518.642L517.787 584.26C518.091 584.057 518.389 583.899 518.68 583.785C519.503 583.468 520.282 583.31 521.017 583.31C521.904 583.31 522.67 583.468 523.316 583.785C523.962 584.089 524.45 584.513 524.779 585.058C525.121 585.603 525.292 586.223 525.292 586.92V593H523.392L523.202 591.86H523.107C522.892 592.139 522.676 592.36 522.461 592.525C521.929 592.968 521.289 593.19 520.542 593.19ZM521.017 591.385C521.41 591.385 521.796 591.195 522.176 590.815C522.353 590.638 522.505 590.448 522.632 590.245V588.915H521.302C520.225 588.915 519.687 589.358 519.687 590.245C519.687 590.587 519.801 590.866 520.029 591.081C520.27 591.284 520.599 591.385 521.017 591.385ZM533.273 593.19C532.183 593.19 531.322 592.892 530.689 592.297C530.068 591.702 529.758 590.923 529.758 589.96V585.21H528.523V584.07L531.373 581.22H532.418V583.5H534.603V585.21H532.418V589.96C532.418 590.467 532.513 590.847 532.703 591.1C532.893 591.353 533.146 591.48 533.463 591.48C533.843 591.48 534.216 591.353 534.584 591.1C534.748 590.986 534.913 590.859 535.078 590.72H535.268L536.123 592.24C535.793 592.455 535.508 592.614 535.268 592.715C534.584 593.032 533.919 593.19 533.273 593.19ZM540.493 582.265C540.113 582.265 539.778 582.126 539.486 581.847C539.208 581.556 539.068 581.22 539.068 580.84C539.068 580.46 539.208 580.131 539.486 579.852C539.778 579.561 540.113 579.415 540.493 579.415C540.873 579.415 541.203 579.561 541.481 579.852C541.773 580.131 541.918 580.46 541.918 580.84C541.918 581.22 541.773 581.556 541.481 581.847C541.203 582.126 540.873 582.265 540.493 582.265ZM539.163 593V583.5H541.823V593H539.163ZM549.999 593.19C548.593 593.19 547.51 592.778 546.75 591.955C546.002 591.132 545.629 589.897 545.629 588.25C545.629 586.603 546.002 585.368 546.75 584.545C547.51 583.722 548.593 583.31 549.999 583.31C551.405 583.31 552.481 583.722 553.229 584.545C553.989 585.368 554.369 586.603 554.369 588.25C554.369 589.897 553.989 591.132 553.229 591.955C552.481 592.778 551.405 593.19 549.999 593.19ZM549.999 591.48C551.139 591.48 551.709 590.403 551.709 588.25C551.709 586.097 551.139 585.02 549.999 585.02C548.859 585.02 548.289 586.097 548.289 588.25C548.289 590.403 548.859 591.48 549.999 591.48ZM558.169 583.5H560.069L560.259 584.64H560.354C560.481 584.45 560.696 584.228 561 583.975C561.596 583.532 562.235 583.31 562.919 583.31C564.072 583.31 564.959 583.627 565.579 584.26C566.213 584.881 566.529 585.767 566.529 586.92V593H563.869V586.92C563.869 586.325 563.743 585.875 563.489 585.571C563.236 585.267 562.888 585.115 562.444 585.115C562.026 585.115 561.627 585.305 561.247 585.685C561.121 585.837 560.981 586.027 560.829 586.255V593H558.169V583.5ZM573.943 593.19C572.942 593.19 572.005 593.032 571.131 592.715C570.802 592.601 570.441 592.443 570.048 592.24L570.903 590.72H571.093C571.334 590.872 571.562 590.999 571.777 591.1C572.309 591.353 572.936 591.48 573.658 591.48C574.291 591.48 574.747 591.385 575.026 591.195C575.317 590.992 575.463 590.733 575.463 590.416C575.463 590.112 575.305 589.871 574.988 589.694C574.671 589.517 574.184 589.327 573.525 589.124C572.828 588.896 572.265 588.681 571.834 588.478C571.403 588.275 571.03 587.984 570.713 587.604C570.396 587.224 570.238 586.743 570.238 586.16C570.238 585.311 570.574 584.627 571.245 584.108C571.916 583.576 572.911 583.31 574.228 583.31C575.026 583.31 575.887 583.468 576.812 583.785C577.129 583.899 577.471 584.057 577.838 584.26L576.983 585.78H576.793C576.565 585.615 576.35 585.489 576.147 585.4C575.615 585.147 575.039 585.02 574.418 585.02C573.924 585.02 573.544 585.115 573.278 585.305C573.025 585.482 572.898 585.704 572.898 585.97C572.898 586.261 573.05 586.496 573.354 586.673C573.671 586.85 574.165 587.047 574.836 587.262C575.507 587.477 576.065 587.693 576.508 587.908C576.951 588.111 577.331 588.402 577.648 588.782C577.965 589.162 578.123 589.643 578.123 590.226C578.123 591.138 577.781 591.86 577.097 592.392C576.413 592.924 575.362 593.19 573.943 593.19Z" fill="#FFFCFC"/>
<path d="M457.7 470H460.7L464.2 478.4L464.56 479.28L464.72 479.7H464.8L464.74 479.28C464.713 479.12 464.7 478.827 464.7 478.4V470H467.5V484H464.5L461 475.6L460.64 474.72L460.48 474.3H460.4L460.44 474.72C460.48 475.24 460.5 475.533 460.5 475.6V484H457.7V470ZM476.403 484.2C474.923 484.2 473.783 483.767 472.983 482.9C472.196 482.033 471.803 480.733 471.803 479C471.803 477.267 472.196 475.967 472.983 475.1C473.783 474.233 474.923 473.8 476.403 473.8C477.883 473.8 479.016 474.233 479.803 475.1C480.603 475.967 481.003 477.267 481.003 479C481.003 480.733 480.603 482.033 479.803 482.9C479.016 483.767 477.883 484.2 476.403 484.2ZM476.403 482.4C477.603 482.4 478.203 481.267 478.203 479C478.203 476.733 477.603 475.6 476.403 475.6C475.203 475.6 474.603 476.733 474.603 479C474.603 481.267 475.203 482.4 476.403 482.4ZM493.1 470H496.9C498.753 470 500.113 470.38 500.98 471.14C501.86 471.9 502.3 473.02 502.3 474.5C502.3 475.873 501.867 476.953 501 477.74C500.613 478.087 500.18 478.34 499.7 478.5L503.1 484H499.9L497 479H495.9V484H493.1V470ZM496.9 477.2C497.82 477.2 498.48 476.993 498.88 476.58C499.293 476.153 499.5 475.46 499.5 474.5C499.5 473.54 499.293 472.853 498.88 472.44C498.48 472.013 497.82 471.8 496.9 471.8H495.9V477.2H496.9ZM510.992 484.2C507.659 484.2 505.992 482.467 505.992 479C505.992 477.293 506.379 476 507.152 475.12C507.926 474.24 509.006 473.8 510.392 473.8C511.766 473.8 512.839 474.227 513.612 475.08C514.399 475.933 514.792 477.173 514.792 478.8V479.3L514.192 479.9H508.792C508.792 481.567 509.592 482.4 511.192 482.4C511.752 482.4 512.266 482.267 512.732 482C512.919 481.907 513.106 481.773 513.292 481.6H513.492L514.392 483.2C514.019 483.427 513.699 483.593 513.432 483.7C512.632 484.033 511.819 484.2 510.992 484.2ZM511.992 478.1C511.992 477.3 511.832 476.687 511.512 476.26C511.206 475.82 510.832 475.6 510.392 475.6C509.952 475.6 509.572 475.82 509.252 476.26C508.946 476.687 508.792 477.3 508.792 478.1H511.992ZM518.783 474H520.783L520.983 475.2H521.083C521.216 475 521.443 474.767 521.763 474.5C522.389 474.033 523.063 473.8 523.783 473.8C524.983 473.8 525.949 474.247 526.683 475.14C527.416 476.02 527.783 477.307 527.783 479C527.783 480.707 527.403 482 526.643 482.88C525.896 483.76 524.876 484.2 523.583 484.2C523.036 484.2 522.549 484.1 522.123 483.9C521.909 483.82 521.729 483.72 521.583 483.6V487.2L520.783 488H518.783V474ZM523.083 482.4C523.683 482.4 524.149 482.14 524.483 481.62C524.816 481.1 524.983 480.227 524.983 479C524.983 477.84 524.823 477 524.503 476.48C524.196 475.96 523.789 475.7 523.283 475.7C522.843 475.7 522.423 475.9 522.023 476.3C521.889 476.46 521.743 476.66 521.583 476.9V481.8C521.729 481.92 521.869 482.02 522.003 482.1C522.323 482.3 522.683 482.4 523.083 482.4ZM531.774 484V470.8L532.574 470H534.574V484H531.774ZM540.68 488.2C540.146 488.2 539.626 488.1 539.12 487.9C538.866 487.82 538.653 487.72 538.48 487.6L539.18 485.9H539.38C539.513 486.033 539.62 486.12 539.7 486.16C539.953 486.32 540.213 486.4 540.48 486.4C540.8 486.4 541.093 486.28 541.36 486.04C541.626 485.8 541.82 485.453 541.94 485L542.22 484H541.46L538.16 474H540.78L542.78 480.5C542.833 480.713 542.873 480.947 542.9 481.2L542.94 481.6H543.02L543.06 481.2C543.086 480.947 543.126 480.713 543.18 480.5L544.88 474H547.68L544.38 485C543.713 487.133 542.48 488.2 540.68 488.2Z" fill="#FFFCFC"/>
<path d="M457.061 367L461.161 353H464.361L468.461 367H465.661L464.761 363.8H460.761L459.861 367H457.061ZM464.261 362L463.061 357.8C463.021 357.653 462.981 357.48 462.941 357.28C462.901 357.067 462.874 356.913 462.861 356.82L462.801 356.3H462.721L462.641 356.82C462.614 356.94 462.581 357.107 462.541 357.32C462.514 357.52 462.488 357.68 462.461 357.8L461.261 362H464.261ZM475.753 367.2C474.54 367.2 473.6 366.873 472.933 366.22C472.28 365.553 471.953 364.613 471.953 363.4V357H474.753V363.4C474.753 364.027 474.886 364.5 475.153 364.82C475.42 365.14 475.786 365.3 476.253 365.3C476.693 365.3 477.113 365.1 477.513 364.7C477.646 364.54 477.793 364.34 477.953 364.1V357H480.753V367H478.753L478.553 365.8H478.453C478.226 366.093 478 366.327 477.773 366.5C477.213 366.967 476.54 367.2 475.753 367.2ZM489.255 367.2C488.108 367.2 487.201 366.887 486.535 366.26C485.881 365.633 485.555 364.813 485.555 363.8V358.8H484.255V357.6L487.255 354.6H488.355V357H490.655V358.8H488.355V363.8C488.355 364.333 488.455 364.733 488.655 365C488.855 365.267 489.121 365.4 489.455 365.4C489.855 365.4 490.248 365.267 490.635 365C490.808 364.88 490.981 364.747 491.155 364.6H491.355L492.255 366.2C491.908 366.427 491.608 366.593 491.355 366.7C490.635 367.033 489.935 367.2 489.255 367.2ZM499.455 367.2C497.975 367.2 496.835 366.767 496.035 365.9C495.249 365.033 494.855 363.733 494.855 362C494.855 360.267 495.249 358.967 496.035 358.1C496.835 357.233 497.975 356.8 499.455 356.8C500.935 356.8 502.069 357.233 502.855 358.1C503.655 358.967 504.055 360.267 504.055 362C504.055 363.733 503.655 365.033 502.855 365.9C502.069 366.767 500.935 367.2 499.455 367.2ZM499.455 365.4C500.655 365.4 501.255 364.267 501.255 362C501.255 359.733 500.655 358.6 499.455 358.6C498.255 358.6 497.655 359.733 497.655 362C497.655 364.267 498.255 365.4 499.455 365.4ZM508.056 357H510.056L510.256 358.2H510.356C510.503 357.987 510.716 357.753 510.996 357.5C511.57 357.033 512.19 356.8 512.856 356.8C513.67 356.8 514.35 357.033 514.896 357.5C515.136 357.727 515.323 357.96 515.456 358.2C515.643 357.973 515.903 357.74 516.236 357.5C516.983 357.033 517.723 356.8 518.456 356.8C519.576 356.8 520.456 357.133 521.096 357.8C521.736 358.467 522.056 359.4 522.056 360.6V367H519.256V360.6C519.256 359.987 519.13 359.52 518.876 359.2C518.636 358.867 518.33 358.7 517.956 358.7C517.596 358.7 517.236 358.867 516.876 359.2C516.783 359.293 516.643 359.46 516.456 359.7V367H513.656V360.6C513.656 359.987 513.53 359.52 513.276 359.2C513.036 358.867 512.73 358.7 512.356 358.7C511.93 358.7 511.556 358.9 511.236 359.3C511.063 359.527 510.936 359.727 510.856 359.9V367H508.056V357ZM529.655 367.2C528.482 367.2 527.569 366.92 526.915 366.36C526.275 365.787 525.955 365.033 525.955 364.1C525.955 363.1 526.315 362.32 527.035 361.76C527.769 361.187 528.909 360.9 530.455 360.9H531.855V360.6C531.855 359.893 531.702 359.387 531.395 359.08C531.089 358.76 530.609 358.6 529.955 358.6C529.395 358.6 528.882 358.733 528.415 359C528.229 359.093 528.042 359.227 527.855 359.4H527.655L526.755 357.8C527.075 357.587 527.389 357.42 527.695 357.3C528.562 356.967 529.382 356.8 530.155 356.8C531.089 356.8 531.895 356.967 532.575 357.3C533.255 357.62 533.769 358.067 534.115 358.64C534.475 359.213 534.655 359.867 534.655 360.6V367H532.655L532.455 365.8H532.355C532.129 366.093 531.902 366.327 531.675 366.5C531.115 366.967 530.442 367.2 529.655 367.2ZM530.155 365.3C530.569 365.3 530.975 365.1 531.375 364.7C531.562 364.513 531.722 364.313 531.855 364.1V362.7H530.455C529.322 362.7 528.755 363.167 528.755 364.1C528.755 364.46 528.875 364.753 529.115 364.98C529.369 365.193 529.715 365.3 530.155 365.3ZM543.056 367.2C541.91 367.2 541.003 366.887 540.336 366.26C539.683 365.633 539.356 364.813 539.356 363.8V358.8H538.056V357.6L541.056 354.6H542.156V357H544.456V358.8H542.156V363.8C542.156 364.333 542.256 364.733 542.456 365C542.656 365.267 542.923 365.4 543.256 365.4C543.656 365.4 544.05 365.267 544.436 365C544.61 364.88 544.783 364.747 544.956 364.6H545.156L546.056 366.2C545.71 366.427 545.41 366.593 545.156 366.7C544.436 367.033 543.736 367.2 543.056 367.2ZM553.657 367.2C550.324 367.2 548.657 365.467 548.657 362C548.657 360.293 549.044 359 549.817 358.12C550.59 357.24 551.67 356.8 553.057 356.8C554.43 356.8 555.504 357.227 556.277 358.08C557.064 358.933 557.457 360.173 557.457 361.8V362.3L556.857 362.9H551.457C551.457 364.567 552.257 365.4 553.857 365.4C554.417 365.4 554.93 365.267 555.397 365C555.584 364.907 555.77 364.773 555.957 364.6H556.157L557.057 366.2C556.684 366.427 556.364 366.593 556.097 366.7C555.297 367.033 554.484 367.2 553.657 367.2ZM554.657 361.1C554.657 360.3 554.497 359.687 554.177 359.26C553.87 358.82 553.497 358.6 553.057 358.6C552.617 358.6 552.237 358.82 551.917 359.26C551.61 359.687 551.457 360.3 551.457 361.1H554.657ZM564.848 367.2C563.648 367.2 562.681 366.76 561.948 365.88C561.214 364.987 560.848 363.693 560.848 362C560.848 360.293 561.221 359 561.968 358.12C562.728 357.24 563.754 356.8 565.048 356.8C565.328 356.8 565.568 356.827 565.768 356.88C565.981 356.933 566.221 357.007 566.488 357.1L567.048 357.4V353.8L567.848 353H569.848V367H567.848L567.648 365.8H567.548C567.321 366.093 567.094 366.327 566.868 366.5C566.308 366.967 565.634 367.2 564.848 367.2ZM565.348 365.3C565.788 365.3 566.208 365.1 566.608 364.7C566.741 364.54 566.888 364.34 567.048 364.1V359.2L566.628 358.9C566.254 358.7 565.894 358.6 565.548 358.6C564.948 358.6 564.481 358.86 564.148 359.38C563.814 359.9 563.648 360.773 563.648 362C563.648 363.16 563.801 364 564.108 364.52C564.428 365.04 564.841 365.3 565.348 365.3ZM487.461 378H491.261C493.115 378 494.475 378.38 495.341 379.14C496.221 379.9 496.661 381.02 496.661 382.5C496.661 383.873 496.228 384.953 495.361 385.74C494.975 386.087 494.541 386.34 494.061 386.5L497.461 392H494.261L491.361 387H490.261V392H487.461V378ZM491.261 385.2C492.181 385.2 492.841 384.993 493.241 384.58C493.655 384.153 493.861 383.46 493.861 382.5C493.861 381.54 493.655 380.853 493.241 380.44C492.841 380.013 492.181 379.8 491.261 379.8H490.261V385.2H491.261ZM505.354 392.2C502.02 392.2 500.354 390.467 500.354 387C500.354 385.293 500.74 384 501.514 383.12C502.287 382.24 503.367 381.8 504.754 381.8C506.127 381.8 507.2 382.227 507.974 383.08C508.76 383.933 509.154 385.173 509.154 386.8V387.3L508.554 387.9H503.154C503.154 389.567 503.954 390.4 505.554 390.4C506.114 390.4 506.627 390.267 507.094 390C507.28 389.907 507.467 389.773 507.654 389.6H507.854L508.754 391.2C508.38 391.427 508.06 391.593 507.794 391.7C506.994 392.033 506.18 392.2 505.354 392.2ZM506.354 386.1C506.354 385.3 506.194 384.687 505.874 384.26C505.567 383.82 505.194 383.6 504.754 383.6C504.314 383.6 503.934 383.82 503.614 384.26C503.307 384.687 503.154 385.3 503.154 386.1H506.354ZM513.144 382H515.144L515.344 383.2H515.444C515.577 383 515.804 382.767 516.124 382.5C516.751 382.033 517.424 381.8 518.144 381.8C519.344 381.8 520.311 382.247 521.044 383.14C521.777 384.02 522.144 385.307 522.144 387C522.144 388.707 521.764 390 521.004 390.88C520.257 391.76 519.237 392.2 517.944 392.2C517.397 392.2 516.911 392.1 516.484 391.9C516.271 391.82 516.091 391.72 515.944 391.6V395.2L515.144 396H513.144V382ZM517.444 390.4C518.044 390.4 518.511 390.14 518.844 389.62C519.177 389.1 519.344 388.227 519.344 387C519.344 385.84 519.184 385 518.864 384.48C518.557 383.96 518.151 383.7 517.644 383.7C517.204 383.7 516.784 383.9 516.384 384.3C516.251 384.46 516.104 384.66 515.944 384.9V389.8C516.091 389.92 516.231 390.02 516.364 390.1C516.684 390.3 517.044 390.4 517.444 390.4ZM526.136 392V378.8L526.936 378H528.936V392H526.136ZM535.041 396.2C534.508 396.2 533.988 396.1 533.481 395.9C533.228 395.82 533.014 395.72 532.841 395.6L533.541 393.9H533.741C533.874 394.033 533.981 394.12 534.061 394.16C534.314 394.32 534.574 394.4 534.841 394.4C535.161 394.4 535.454 394.28 535.721 394.04C535.988 393.8 536.181 393.453 536.301 393L536.581 392H535.821L532.521 382H535.141L537.141 388.5C537.194 388.713 537.234 388.947 537.261 389.2L537.301 389.6H537.381L537.421 389.2C537.448 388.947 537.488 388.713 537.541 388.5L539.241 382H542.041L538.741 393C538.074 395.133 536.841 396.2 535.041 396.2Z" fill="#FFFCFC"/>
<path d="M185.7 445H188.7L192.2 453.4L192.56 454.28L192.72 454.7H192.8L192.74 454.28C192.713 454.12 192.7 453.827 192.7 453.4V445H195.5V459H192.5L189 450.6L188.64 449.72L188.48 449.3H188.4L188.44 449.72C188.48 450.24 188.5 450.533 188.5 450.6V459H185.7V445ZM204.403 459.2C202.923 459.2 201.783 458.767 200.983 457.9C200.196 457.033 199.803 455.733 199.803 454C199.803 452.267 200.196 450.967 200.983 450.1C201.783 449.233 202.923 448.8 204.403 448.8C205.883 448.8 207.016 449.233 207.803 450.1C208.603 450.967 209.003 452.267 209.003 454C209.003 455.733 208.603 457.033 207.803 457.9C207.016 458.767 205.883 459.2 204.403 459.2ZM204.403 457.4C205.603 457.4 206.203 456.267 206.203 454C206.203 451.733 205.603 450.6 204.403 450.6C203.203 450.6 202.603 451.733 202.603 454C202.603 456.267 203.203 457.4 204.403 457.4ZM216.904 459.2C215.757 459.2 214.851 458.887 214.184 458.26C213.531 457.633 213.204 456.813 213.204 455.8V450.8H211.904V449.6L214.904 446.6H216.004V449H218.304V450.8H216.004V455.8C216.004 456.333 216.104 456.733 216.304 457C216.504 457.267 216.771 457.4 217.104 457.4C217.504 457.4 217.897 457.267 218.284 457C218.457 456.88 218.631 456.747 218.804 456.6H219.004L219.904 458.2C219.557 458.427 219.257 458.593 219.004 458.7C218.284 459.033 217.584 459.2 216.904 459.2ZM224.505 447.7C224.105 447.7 223.751 447.553 223.445 447.26C223.151 446.953 223.005 446.6 223.005 446.2C223.005 445.8 223.151 445.453 223.445 445.16C223.751 444.853 224.105 444.7 224.505 444.7C224.905 444.7 225.251 444.853 225.545 445.16C225.851 445.453 226.005 445.8 226.005 446.2C226.005 446.6 225.851 446.953 225.545 447.26C225.251 447.553 224.905 447.7 224.505 447.7ZM223.105 459V449H225.905V459H223.105ZM230.61 450.8H229.51V449H230.61V448.2C230.61 447.173 230.95 446.353 231.63 445.74C232.323 445.113 233.283 444.8 234.51 444.8C235.137 444.8 235.837 444.967 236.61 445.3C236.863 445.407 237.163 445.573 237.51 445.8L236.61 447.4H236.41C236.237 447.253 236.063 447.12 235.89 447C235.503 446.733 235.11 446.6 234.71 446.6C234.35 446.6 234.043 446.747 233.79 447.04C233.537 447.32 233.41 447.707 233.41 448.2V449H235.91V450.8H233.41V459H230.61V450.8ZM241.015 447.7C240.615 447.7 240.261 447.553 239.955 447.26C239.661 446.953 239.515 446.6 239.515 446.2C239.515 445.8 239.661 445.453 239.955 445.16C240.261 444.853 240.615 444.7 241.015 444.7C241.415 444.7 241.761 444.853 242.055 445.16C242.361 445.453 242.515 445.8 242.515 446.2C242.515 446.6 242.361 446.953 242.055 447.26C241.761 447.553 241.415 447.7 241.015 447.7ZM239.615 459V449H242.415V459H239.615ZM251.32 459.2C248.054 459.2 246.42 457.467 246.42 454C246.42 452.267 246.82 450.967 247.62 450.1C248.42 449.233 249.587 448.8 251.12 448.8C251.88 448.8 252.694 448.967 253.56 449.3C253.827 449.407 254.147 449.573 254.52 449.8L253.62 451.4H253.42C253.234 451.227 253.047 451.093 252.86 451C252.394 450.733 251.88 450.6 251.32 450.6C250.64 450.6 250.12 450.86 249.76 451.38C249.4 451.887 249.22 452.76 249.22 454C249.22 455.253 249.407 456.133 249.78 456.64C250.154 457.147 250.734 457.4 251.52 457.4C252.08 457.4 252.594 457.267 253.06 457C253.247 456.907 253.434 456.773 253.62 456.6H253.82L254.72 458.2C254.347 458.427 254.027 458.593 253.76 458.7C252.96 459.033 252.147 459.2 251.32 459.2ZM261.412 459.2C260.239 459.2 259.326 458.92 258.672 458.36C258.032 457.787 257.712 457.033 257.712 456.1C257.712 455.1 258.072 454.32 258.792 453.76C259.526 453.187 260.666 452.9 262.212 452.9H263.612V452.6C263.612 451.893 263.459 451.387 263.152 451.08C262.846 450.76 262.366 450.6 261.712 450.6C261.152 450.6 260.639 450.733 260.172 451C259.986 451.093 259.799 451.227 259.612 451.4H259.412L258.512 449.8C258.832 449.587 259.146 449.42 259.452 449.3C260.319 448.967 261.139 448.8 261.912 448.8C262.846 448.8 263.652 448.967 264.332 449.3C265.012 449.62 265.526 450.067 265.872 450.64C266.232 451.213 266.412 451.867 266.412 452.6V459H264.412L264.212 457.8H264.112C263.886 458.093 263.659 458.327 263.432 458.5C262.872 458.967 262.199 459.2 261.412 459.2ZM261.912 457.3C262.326 457.3 262.732 457.1 263.132 456.7C263.319 456.513 263.479 456.313 263.612 456.1V454.7H262.212C261.079 454.7 260.512 455.167 260.512 456.1C260.512 456.46 260.632 456.753 260.872 456.98C261.126 457.193 261.472 457.3 261.912 457.3ZM274.813 459.2C273.667 459.2 272.76 458.887 272.093 458.26C271.44 457.633 271.113 456.813 271.113 455.8V450.8H269.813V449.6L272.813 446.6H273.913V449H276.213V450.8H273.913V455.8C273.913 456.333 274.013 456.733 274.213 457C274.413 457.267 274.68 457.4 275.013 457.4C275.413 457.4 275.807 457.267 276.193 457C276.367 456.88 276.54 456.747 276.713 456.6H276.913L277.813 458.2C277.467 458.427 277.167 458.593 276.913 458.7C276.193 459.033 275.493 459.2 274.813 459.2ZM282.414 447.7C282.014 447.7 281.661 447.553 281.354 447.26C281.061 446.953 280.914 446.6 280.914 446.2C280.914 445.8 281.061 445.453 281.354 445.16C281.661 444.853 282.014 444.7 282.414 444.7C282.814 444.7 283.161 444.853 283.454 445.16C283.761 445.453 283.914 445.8 283.914 446.2C283.914 446.6 283.761 446.953 283.454 447.26C283.161 447.553 282.814 447.7 282.414 447.7ZM281.014 459V449H283.814V459H281.014ZM292.419 459.2C290.939 459.2 289.799 458.767 288.999 457.9C288.213 457.033 287.819 455.733 287.819 454C287.819 452.267 288.213 450.967 288.999 450.1C289.799 449.233 290.939 448.8 292.419 448.8C293.899 448.8 295.033 449.233 295.819 450.1C296.619 450.967 297.019 452.267 297.019 454C297.019 455.733 296.619 457.033 295.819 457.9C295.033 458.767 293.899 459.2 292.419 459.2ZM292.419 457.4C293.619 457.4 294.219 456.267 294.219 454C294.219 451.733 293.619 450.6 292.419 450.6C291.219 450.6 290.619 451.733 290.619 454C290.619 456.267 291.219 457.4 292.419 457.4ZM301.02 449H303.02L303.22 450.2H303.32C303.454 450 303.68 449.767 304 449.5C304.627 449.033 305.3 448.8 306.02 448.8C307.234 448.8 308.167 449.133 308.82 449.8C309.487 450.453 309.82 451.387 309.82 452.6V459H307.02V452.6C307.02 451.973 306.887 451.5 306.62 451.18C306.354 450.86 305.987 450.7 305.52 450.7C305.08 450.7 304.66 450.9 304.26 451.3C304.127 451.46 303.98 451.66 303.82 451.9V459H301.02V449ZM317.624 459.2C316.571 459.2 315.584 459.033 314.664 458.7C314.318 458.58 313.938 458.413 313.524 458.2L314.424 456.6H314.624C314.878 456.76 315.118 456.893 315.344 457C315.904 457.267 316.564 457.4 317.324 457.4C317.991 457.4 318.471 457.3 318.764 457.1C319.071 456.887 319.224 456.613 319.224 456.28C319.224 455.96 319.058 455.707 318.724 455.52C318.391 455.333 317.878 455.133 317.184 454.92C316.451 454.68 315.858 454.453 315.404 454.24C314.951 454.027 314.558 453.72 314.224 453.32C313.891 452.92 313.724 452.413 313.724 451.8C313.724 450.907 314.078 450.187 314.784 449.64C315.491 449.08 316.538 448.8 317.924 448.8C318.764 448.8 319.671 448.967 320.644 449.3C320.978 449.42 321.338 449.587 321.724 449.8L320.824 451.4H320.624C320.384 451.227 320.158 451.093 319.944 451C319.384 450.733 318.778 450.6 318.124 450.6C317.604 450.6 317.204 450.7 316.924 450.9C316.658 451.087 316.524 451.32 316.524 451.6C316.524 451.907 316.684 452.153 317.004 452.34C317.338 452.527 317.858 452.733 318.564 452.96C319.271 453.187 319.858 453.413 320.324 453.64C320.791 453.853 321.191 454.16 321.524 454.56C321.858 454.96 322.024 455.467 322.024 456.08C322.024 457.04 321.664 457.8 320.944 458.36C320.224 458.92 319.118 459.2 317.624 459.2ZM216.386 484.2C214.826 484.2 213.619 483.78 212.766 482.94C211.913 482.1 211.486 480.92 211.486 479.4V470H214.286V479.4C214.286 480.4 214.473 481.153 214.846 481.66C215.233 482.153 215.746 482.4 216.386 482.4C217.026 482.4 217.533 482.153 217.906 481.66C218.293 481.153 218.486 480.4 218.486 479.4V470H221.286V479.4C221.286 480.92 220.859 482.1 220.006 482.94C219.153 483.78 217.946 484.2 216.386 484.2ZM225.979 474H227.979L228.179 475.2H228.279C228.412 475 228.639 474.767 228.959 474.5C229.586 474.033 230.259 473.8 230.979 473.8C232.179 473.8 233.146 474.247 233.879 475.14C234.612 476.02 234.979 477.307 234.979 479C234.979 480.707 234.599 482 233.839 482.88C233.092 483.76 232.072 484.2 230.779 484.2C230.232 484.2 229.746 484.1 229.319 483.9C229.106 483.82 228.926 483.72 228.779 483.6V487.2L227.979 488H225.979V474ZM230.279 482.4C230.879 482.4 231.346 482.14 231.679 481.62C232.012 481.1 232.179 480.227 232.179 479C232.179 477.84 232.019 477 231.699 476.48C231.392 475.96 230.986 475.7 230.479 475.7C230.039 475.7 229.619 475.9 229.219 476.3C229.086 476.46 228.939 476.66 228.779 476.9V481.8C228.926 481.92 229.066 482.02 229.199 482.1C229.519 482.3 229.879 482.4 230.279 482.4ZM242.37 484.2C241.17 484.2 240.204 483.76 239.47 482.88C238.737 481.987 238.37 480.693 238.37 479C238.37 477.293 238.744 476 239.49 475.12C240.25 474.24 241.277 473.8 242.57 473.8C242.85 473.8 243.09 473.827 243.29 473.88C243.504 473.933 243.744 474.007 244.01 474.1L244.57 474.4V470.8L245.37 470H247.37V484H245.37L245.17 482.8H245.07C244.844 483.093 244.617 483.327 244.39 483.5C243.83 483.967 243.157 484.2 242.37 484.2ZM242.87 482.3C243.31 482.3 243.73 482.1 244.13 481.7C244.264 481.54 244.41 481.34 244.57 481.1V476.2L244.15 475.9C243.777 475.7 243.417 475.6 243.07 475.6C242.47 475.6 242.004 475.86 241.67 476.38C241.337 476.9 241.17 477.773 241.17 479C241.17 480.16 241.324 481 241.63 481.52C241.95 482.04 242.364 482.3 242.87 482.3ZM255.062 484.2C253.888 484.2 252.975 483.92 252.322 483.36C251.682 482.787 251.362 482.033 251.362 481.1C251.362 480.1 251.722 479.32 252.442 478.76C253.175 478.187 254.315 477.9 255.862 477.9H257.262V477.6C257.262 476.893 257.108 476.387 256.802 476.08C256.495 475.76 256.015 475.6 255.362 475.6C254.802 475.6 254.288 475.733 253.822 476C253.635 476.093 253.448 476.227 253.262 476.4H253.062L252.162 474.8C252.482 474.587 252.795 474.42 253.102 474.3C253.968 473.967 254.788 473.8 255.562 473.8C256.495 473.8 257.302 473.967 257.982 474.3C258.662 474.62 259.175 475.067 259.522 475.64C259.882 476.213 260.062 476.867 260.062 477.6V484H258.062L257.862 482.8H257.762C257.535 483.093 257.308 483.327 257.082 483.5C256.522 483.967 255.848 484.2 255.062 484.2ZM255.562 482.3C255.975 482.3 256.382 482.1 256.782 481.7C256.968 481.513 257.128 481.313 257.262 481.1V479.7H255.862C254.728 479.7 254.162 480.167 254.162 481.1C254.162 481.46 254.282 481.753 254.522 481.98C254.775 482.193 255.122 482.3 255.562 482.3ZM268.462 484.2C267.316 484.2 266.409 483.887 265.742 483.26C265.089 482.633 264.762 481.813 264.762 480.8V475.8H263.462V474.6L266.462 471.6H267.562V474H269.862V475.8H267.562V480.8C267.562 481.333 267.662 481.733 267.862 482C268.062 482.267 268.329 482.4 268.662 482.4C269.062 482.4 269.456 482.267 269.842 482C270.016 481.88 270.189 481.747 270.362 481.6H270.562L271.462 483.2C271.116 483.427 270.816 483.593 270.562 483.7C269.842 484.033 269.142 484.2 268.462 484.2ZM279.063 484.2C275.73 484.2 274.063 482.467 274.063 479C274.063 477.293 274.45 476 275.223 475.12C275.997 474.24 277.077 473.8 278.463 473.8C279.837 473.8 280.91 474.227 281.683 475.08C282.47 475.933 282.863 477.173 282.863 478.8V479.3L282.263 479.9H276.863C276.863 481.567 277.663 482.4 279.263 482.4C279.823 482.4 280.337 482.267 280.803 482C280.99 481.907 281.177 481.773 281.363 481.6H281.563L282.463 483.2C282.09 483.427 281.77 483.593 281.503 483.7C280.703 484.033 279.89 484.2 279.063 484.2ZM280.063 478.1C280.063 477.3 279.903 476.687 279.583 476.26C279.277 475.82 278.903 475.6 278.463 475.6C278.023 475.6 277.643 475.82 277.323 476.26C277.017 476.687 276.863 477.3 276.863 478.1H280.063ZM290.254 484.2C289.054 484.2 288.087 483.76 287.354 482.88C286.621 481.987 286.254 480.693 286.254 479C286.254 477.293 286.627 476 287.374 475.12C288.134 474.24 289.161 473.8 290.454 473.8C290.734 473.8 290.974 473.827 291.174 473.88C291.387 473.933 291.627 474.007 291.894 474.1L292.454 474.4V470.8L293.254 470H295.254V484H293.254L293.054 482.8H292.954C292.727 483.093 292.501 483.327 292.274 483.5C291.714 483.967 291.041 484.2 290.254 484.2ZM290.754 482.3C291.194 482.3 291.614 482.1 292.014 481.7C292.147 481.54 292.294 481.34 292.454 481.1V476.2L292.034 475.9C291.661 475.7 291.301 475.6 290.954 475.6C290.354 475.6 289.887 475.86 289.554 476.38C289.221 476.9 289.054 477.773 289.054 479C289.054 480.16 289.207 481 289.514 481.52C289.834 482.04 290.247 482.3 290.754 482.3Z" fill="#FFFCFC"/>
<path d="M367.7 251H370.7L374.2 259.4L374.56 260.28L374.72 260.7H374.8L374.74 260.28C374.713 260.12 374.7 259.827 374.7 259.4V251H377.5V265H374.5L371 256.6L370.64 255.72L370.48 255.3H370.4L370.44 255.72C370.48 256.24 370.5 256.533 370.5 256.6V265H367.7V251ZM386.403 265.2C384.923 265.2 383.783 264.767 382.983 263.9C382.196 263.033 381.803 261.733 381.803 260C381.803 258.267 382.196 256.967 382.983 256.1C383.783 255.233 384.923 254.8 386.403 254.8C387.883 254.8 389.016 255.233 389.803 256.1C390.603 256.967 391.003 258.267 391.003 260C391.003 261.733 390.603 263.033 389.803 263.9C389.016 264.767 387.883 265.2 386.403 265.2ZM386.403 263.4C387.603 263.4 388.203 262.267 388.203 260C388.203 257.733 387.603 256.6 386.403 256.6C385.203 256.6 384.603 257.733 384.603 260C384.603 262.267 385.203 263.4 386.403 263.4ZM398.904 265.2C397.757 265.2 396.851 264.887 396.184 264.26C395.531 263.633 395.204 262.813 395.204 261.8V256.8H393.904V255.6L396.904 252.6H398.004V255H400.304V256.8H398.004V261.8C398.004 262.333 398.104 262.733 398.304 263C398.504 263.267 398.771 263.4 399.104 263.4C399.504 263.4 399.897 263.267 400.284 263C400.457 262.88 400.631 262.747 400.804 262.6H401.004L401.904 264.2C401.557 264.427 401.257 264.593 401.004 264.7C400.284 265.033 399.584 265.2 398.904 265.2ZM406.505 253.7C406.105 253.7 405.751 253.553 405.445 253.26C405.151 252.953 405.005 252.6 405.005 252.2C405.005 251.8 405.151 251.453 405.445 251.16C405.751 250.853 406.105 250.7 406.505 250.7C406.905 250.7 407.251 250.853 407.545 251.16C407.851 251.453 408.005 251.8 408.005 252.2C408.005 252.6 407.851 252.953 407.545 253.26C407.251 253.553 406.905 253.7 406.505 253.7ZM405.105 265V255H407.905V265H405.105ZM412.61 256.8H411.51V255H412.61V254.2C412.61 253.173 412.95 252.353 413.63 251.74C414.323 251.113 415.283 250.8 416.51 250.8C417.137 250.8 417.837 250.967 418.61 251.3C418.863 251.407 419.163 251.573 419.51 251.8L418.61 253.4H418.41C418.237 253.253 418.063 253.12 417.89 253C417.503 252.733 417.11 252.6 416.71 252.6C416.35 252.6 416.043 252.747 415.79 253.04C415.537 253.32 415.41 253.707 415.41 254.2V255H417.91V256.8H415.41V265H412.61V256.8ZM423.015 253.7C422.615 253.7 422.262 253.553 421.955 253.26C421.662 252.953 421.515 252.6 421.515 252.2C421.515 251.8 421.662 251.453 421.955 251.16C422.262 250.853 422.615 250.7 423.015 250.7C423.415 250.7 423.762 250.853 424.055 251.16C424.362 251.453 424.515 251.8 424.515 252.2C424.515 252.6 424.362 252.953 424.055 253.26C423.762 253.553 423.415 253.7 423.015 253.7ZM421.615 265V255H424.415V265H421.615ZM433.32 265.2C430.054 265.2 428.42 263.467 428.42 260C428.42 258.267 428.82 256.967 429.62 256.1C430.42 255.233 431.587 254.8 433.12 254.8C433.88 254.8 434.694 254.967 435.56 255.3C435.827 255.407 436.147 255.573 436.52 255.8L435.62 257.4H435.42C435.234 257.227 435.047 257.093 434.86 257C434.394 256.733 433.88 256.6 433.32 256.6C432.64 256.6 432.12 256.86 431.76 257.38C431.4 257.887 431.22 258.76 431.22 260C431.22 261.253 431.407 262.133 431.78 262.64C432.154 263.147 432.734 263.4 433.52 263.4C434.08 263.4 434.594 263.267 435.06 263C435.247 262.907 435.434 262.773 435.62 262.6H435.82L436.72 264.2C436.347 264.427 436.027 264.593 435.76 264.7C434.96 265.033 434.147 265.2 433.32 265.2ZM443.412 265.2C442.239 265.2 441.326 264.92 440.672 264.36C440.032 263.787 439.712 263.033 439.712 262.1C439.712 261.1 440.072 260.32 440.792 259.76C441.526 259.187 442.666 258.9 444.212 258.9H445.612V258.6C445.612 257.893 445.459 257.387 445.152 257.08C444.846 256.76 444.366 256.6 443.712 256.6C443.152 256.6 442.639 256.733 442.172 257C441.986 257.093 441.799 257.227 441.612 257.4H441.412L440.512 255.8C440.832 255.587 441.146 255.42 441.452 255.3C442.319 254.967 443.139 254.8 443.912 254.8C444.846 254.8 445.652 254.967 446.332 255.3C447.012 255.62 447.526 256.067 447.872 256.64C448.232 257.213 448.412 257.867 448.412 258.6V265H446.412L446.212 263.8H446.112C445.886 264.093 445.659 264.327 445.432 264.5C444.872 264.967 444.199 265.2 443.412 265.2ZM443.912 263.3C444.326 263.3 444.732 263.1 445.132 262.7C445.319 262.513 445.479 262.313 445.612 262.1V260.7H444.212C443.079 260.7 442.512 261.167 442.512 262.1C442.512 262.46 442.632 262.753 442.872 262.98C443.126 263.193 443.472 263.3 443.912 263.3ZM456.813 265.2C455.667 265.2 454.76 264.887 454.093 264.26C453.44 263.633 453.113 262.813 453.113 261.8V256.8H451.813V255.6L454.813 252.6H455.913V255H458.213V256.8H455.913V261.8C455.913 262.333 456.013 262.733 456.213 263C456.413 263.267 456.68 263.4 457.013 263.4C457.413 263.4 457.807 263.267 458.193 263C458.367 262.88 458.54 262.747 458.713 262.6H458.913L459.813 264.2C459.467 264.427 459.167 264.593 458.913 264.7C458.193 265.033 457.493 265.2 456.813 265.2ZM464.414 253.7C464.014 253.7 463.661 253.553 463.354 253.26C463.061 252.953 462.914 252.6 462.914 252.2C462.914 251.8 463.061 251.453 463.354 251.16C463.661 250.853 464.014 250.7 464.414 250.7C464.814 250.7 465.161 250.853 465.454 251.16C465.761 251.453 465.914 251.8 465.914 252.2C465.914 252.6 465.761 252.953 465.454 253.26C465.161 253.553 464.814 253.7 464.414 253.7ZM463.014 265V255H465.814V265H463.014ZM474.42 265.2C472.94 265.2 471.8 264.767 471 263.9C470.213 263.033 469.82 261.733 469.82 260C469.82 258.267 470.213 256.967 471 256.1C471.8 255.233 472.94 254.8 474.42 254.8C475.9 254.8 477.033 255.233 477.82 256.1C478.62 256.967 479.02 258.267 479.02 260C479.02 261.733 478.62 263.033 477.82 263.9C477.033 264.767 475.9 265.2 474.42 265.2ZM474.42 263.4C475.62 263.4 476.22 262.267 476.22 260C476.22 257.733 475.62 256.6 474.42 256.6C473.22 256.6 472.62 257.733 472.62 260C472.62 262.267 473.22 263.4 474.42 263.4ZM483.02 255H485.02L485.22 256.2H485.32C485.454 256 485.68 255.767 486 255.5C486.627 255.033 487.3 254.8 488.02 254.8C489.234 254.8 490.167 255.133 490.82 255.8C491.487 256.453 491.82 257.387 491.82 258.6V265H489.02V258.6C489.02 257.973 488.887 257.5 488.62 257.18C488.354 256.86 487.987 256.7 487.52 256.7C487.08 256.7 486.66 256.9 486.26 257.3C486.127 257.46 485.98 257.66 485.82 257.9V265H483.02V255ZM499.624 265.2C498.571 265.2 497.584 265.033 496.664 264.7C496.318 264.58 495.938 264.413 495.524 264.2L496.424 262.6H496.624C496.878 262.76 497.118 262.893 497.344 263C497.904 263.267 498.564 263.4 499.324 263.4C499.991 263.4 500.471 263.3 500.764 263.1C501.071 262.887 501.224 262.613 501.224 262.28C501.224 261.96 501.058 261.707 500.724 261.52C500.391 261.333 499.878 261.133 499.184 260.92C498.451 260.68 497.858 260.453 497.404 260.24C496.951 260.027 496.558 259.72 496.224 259.32C495.891 258.92 495.724 258.413 495.724 257.8C495.724 256.907 496.078 256.187 496.784 255.64C497.491 255.08 498.538 254.8 499.924 254.8C500.764 254.8 501.671 254.967 502.644 255.3C502.978 255.42 503.338 255.587 503.724 255.8L502.824 257.4H502.624C502.384 257.227 502.158 257.093 501.944 257C501.384 256.733 500.778 256.6 500.124 256.6C499.604 256.6 499.204 256.7 498.924 256.9C498.658 257.087 498.524 257.32 498.524 257.6C498.524 257.907 498.684 258.153 499.004 258.34C499.338 258.527 499.858 258.733 500.564 258.96C501.271 259.187 501.858 259.413 502.324 259.64C502.791 259.853 503.191 260.16 503.524 260.56C503.858 260.96 504.024 261.467 504.024 262.08C504.024 263.04 503.664 263.8 502.944 264.36C502.224 264.92 501.118 265.2 499.624 265.2Z" fill="#FFFCFC"/>
<path d="M720.075 401.268C721.051 402.244 722.634 402.244 723.611 401.268L739.52 385.358C740.497 384.382 740.497 382.799 739.52 381.822C738.544 380.846 736.961 380.846 735.985 381.822L721.843 395.964L707.701 381.822C706.724 380.846 705.141 380.846 704.165 381.822C703.189 382.799 703.189 384.382 704.165 385.358L720.075 401.268ZM719.343 265L719.343 399.5L724.343 399.5L724.343 265L719.343 265Z" fill="black"/>
<path d="M330.226 467.788C329.253 468.768 329.258 470.35 330.238 471.324L346.2 487.181C347.18 488.154 348.762 488.149 349.736 487.169C350.709 486.19 350.703 484.607 349.724 483.634L335.535 469.538L349.631 455.35C350.604 454.37 350.599 452.787 349.619 451.814C348.64 450.841 347.057 450.846 346.084 451.826L330.226 467.788ZM437.022 466.704L331.992 467.05L332.008 472.05L437.038 471.704L437.022 466.704Z" fill="black"/>
<path d="M255.117 505.537C253.756 505.773 252.845 507.067 253.081 508.427L256.928 530.596C257.164 531.957 258.458 532.868 259.818 532.632C261.179 532.396 262.09 531.102 261.854 529.741L258.435 510.036L278.14 506.616C279.5 506.38 280.412 505.086 280.176 503.726C279.94 502.365 278.646 501.454 277.285 501.69L255.117 505.537ZM308.575 542.291L256.983 505.956L254.104 510.044L305.696 546.379L308.575 542.291Z" fill="black"/>
<path d="M271.581 422.256C271.93 423.592 273.296 424.392 274.632 424.043L296.402 418.359C297.738 418.01 298.538 416.644 298.189 415.308C297.84 413.972 296.474 413.172 295.138 413.521L275.787 418.574L270.734 399.223C270.385 397.887 269.02 397.087 267.684 397.436C266.348 397.784 265.548 399.15 265.896 400.486L271.581 422.256ZM294.188 382.221L271.843 420.361L276.157 422.888L298.502 384.749L294.188 382.221Z" fill="black"/>
<path d="M440.587 233.4C441.574 234.365 443.157 234.347 444.122 233.36L459.851 217.271C460.816 216.284 460.799 214.701 459.811 213.736C458.824 212.771 457.241 212.789 456.276 213.776L442.295 228.077L427.994 214.095C427.006 213.13 425.423 213.148 424.458 214.135C423.493 215.123 423.511 216.705 424.498 217.671L440.587 233.4ZM439.5 202.028L439.835 231.64L444.834 231.584L444.5 201.972L439.5 202.028Z" fill="black"/>
<path d="M827.73 297.391C829.05 296.988 829.794 295.591 829.391 294.27L822.822 272.75C822.419 271.43 821.021 270.686 819.701 271.089C818.38 271.492 817.637 272.89 818.04 274.21L823.879 293.339L804.75 299.178C803.43 299.581 802.686 300.979 803.089 302.299C803.492 303.62 804.89 304.363 806.21 303.96L827.73 297.391ZM763.825 264.207L825.825 297.207L828.175 292.793L766.175 259.793L763.825 264.207Z" fill="black"/>
<path d="M512.216 258H576.5H720.5M296 383.5L311.5 357.25H440.5" stroke="black" stroke-width="5"/>
<path d="M653.141 375.602L653.316 398.088L654.886 480.87" stroke="black" stroke-width="5"/>
<path d="M654.001 435L663.499 435.125L672.997 435.25L692.497 435.507" stroke="black" stroke-width="5"/>
<path d="M305.319 543L325.899 557.051L436.449 558.115" stroke="black" stroke-width="5"/>
<path d="M365.87 182V166.6H375.11V168.58H368.95V172.98H373.79V174.96H368.95V180.02H375.11V182H365.87ZM379.186 171H381.386L381.606 172.32H381.716C381.863 172.1 382.112 171.843 382.464 171.55C383.153 171.037 383.894 170.78 384.686 170.78C386.021 170.78 387.047 171.147 387.766 171.88C388.499 172.599 388.866 173.625 388.866 174.96V182H385.786V174.96C385.786 174.271 385.639 173.75 385.346 173.398C385.053 173.046 384.649 172.87 384.136 172.87C383.652 172.87 383.19 173.09 382.75 173.53C382.603 173.706 382.442 173.926 382.266 174.19V182H379.186V171ZM398.11 182.22C396.849 182.22 395.852 181.875 395.118 181.186C394.4 180.497 394.04 179.595 394.04 178.48V172.98H392.61V171.66L395.91 168.36H397.12V171H399.65V172.98H397.12V178.48C397.12 179.067 397.23 179.507 397.45 179.8C397.67 180.093 397.964 180.24 398.33 180.24C398.77 180.24 399.203 180.093 399.628 179.8C399.819 179.668 400.01 179.521 400.2 179.36H400.42L401.41 181.12C401.029 181.369 400.699 181.553 400.42 181.67C399.628 182.037 398.858 182.22 398.11 182.22ZM404.931 171H407.131L407.351 172.32H407.461C407.608 172.1 407.857 171.843 408.209 171.55C408.899 171.037 409.639 170.78 410.431 170.78C410.813 170.78 411.187 170.817 411.553 170.89C411.788 170.949 411.964 170.985 412.081 171L411.641 173.2H411.421C411.289 173.185 411.128 173.149 410.937 173.09C410.615 173.017 410.263 172.98 409.881 172.98C409.397 172.98 408.935 173.2 408.495 173.64C408.349 173.816 408.187 174.036 408.011 174.3V182H404.931V171ZM417.241 186.62C416.654 186.62 416.082 186.51 415.525 186.29C415.246 186.202 415.012 186.092 414.821 185.96L415.591 184.09H415.811C415.958 184.237 416.075 184.332 416.163 184.376C416.442 184.552 416.728 184.64 417.021 184.64C417.373 184.64 417.696 184.508 417.989 184.244C418.282 183.98 418.495 183.599 418.627 183.1L418.935 182H418.099L414.469 171H417.351L419.551 178.15C419.61 178.385 419.654 178.641 419.683 178.92L419.727 179.36H419.815L419.859 178.92C419.888 178.641 419.932 178.385 419.991 178.15L421.861 171H424.941L421.311 183.1C420.578 185.447 419.221 186.62 417.241 186.62ZM437.584 166.6H441.984C444.052 166.6 445.555 167.025 446.494 167.876C447.447 168.727 447.924 170.025 447.924 171.77C447.924 173.515 447.447 174.813 446.494 175.664C445.555 176.515 444.052 176.94 441.984 176.94H440.664V182H437.584V166.6ZM441.984 174.96C442.996 174.96 443.722 174.718 444.162 174.234C444.617 173.735 444.844 172.914 444.844 171.77C444.844 170.626 444.617 169.812 444.162 169.328C443.722 168.829 442.996 168.58 441.984 168.58H440.664V174.96H441.984ZM456.718 182.22C455.09 182.22 453.836 181.743 452.956 180.79C452.091 179.837 451.658 178.407 451.658 176.5C451.658 174.593 452.091 173.163 452.956 172.21C453.836 171.257 455.09 170.78 456.718 170.78C458.346 170.78 459.593 171.257 460.458 172.21C461.338 173.163 461.778 174.593 461.778 176.5C461.778 178.407 461.338 179.837 460.458 180.79C459.593 181.743 458.346 182.22 456.718 182.22ZM456.718 180.24C458.038 180.24 458.698 178.993 458.698 176.5C458.698 174.007 458.038 172.76 456.718 172.76C455.398 172.76 454.738 174.007 454.738 176.5C454.738 178.993 455.398 180.24 456.718 180.24ZM467.719 169.57C467.279 169.57 466.89 169.409 466.553 169.086C466.23 168.749 466.069 168.36 466.069 167.92C466.069 167.48 466.23 167.099 466.553 166.776C466.89 166.439 467.279 166.27 467.719 166.27C468.159 166.27 468.54 166.439 468.863 166.776C469.2 167.099 469.369 167.48 469.369 167.92C469.369 168.36 469.2 168.749 468.863 169.086C468.54 169.409 468.159 169.57 467.719 169.57ZM466.179 182V171H469.259V182H466.179ZM474.325 171H476.525L476.745 172.32H476.855C477.002 172.1 477.251 171.843 477.603 171.55C478.292 171.037 479.033 170.78 479.825 170.78C481.16 170.78 482.186 171.147 482.905 171.88C483.638 172.599 484.005 173.625 484.005 174.96V182H480.925V174.96C480.925 174.271 480.778 173.75 480.485 173.398C480.192 173.046 479.788 172.87 479.275 172.87C478.791 172.87 478.329 173.09 477.889 173.53C477.742 173.706 477.581 173.926 477.405 174.19V182H474.325V171ZM493.249 182.22C491.988 182.22 490.99 181.875 490.257 181.186C489.538 180.497 489.179 179.595 489.179 178.48V172.98H487.749V171.66L491.049 168.36H492.259V171H494.789V172.98H492.259V178.48C492.259 179.067 492.369 179.507 492.589 179.8C492.809 180.093 493.102 180.24 493.469 180.24C493.909 180.24 494.342 180.093 494.767 179.8C494.958 179.668 495.148 179.521 495.339 179.36H495.559L496.549 181.12C496.168 181.369 495.838 181.553 495.559 181.67C494.767 182.037 493.997 182.22 493.249 182.22Z" fill="black"/>
<path d="M714.8 440.2C713.133 440.2 711.833 439.62 710.9 438.46C709.967 437.287 709.5 435.467 709.5 433C709.5 430.533 709.967 428.72 710.9 427.56C711.833 426.387 713.133 425.8 714.8 425.8C716.467 425.8 717.767 426.387 718.7 427.56C719.633 428.72 720.1 430.533 720.1 433C720.1 435.467 719.633 437.287 718.7 438.46C717.767 439.62 716.467 440.2 714.8 440.2ZM714.8 438.4C715.533 438.4 716.133 437.987 716.6 437.16C717.067 436.333 717.3 434.947 717.3 433C717.3 431.053 717.067 429.667 716.6 428.84C716.133 428.013 715.533 427.6 714.8 427.6C714.067 427.6 713.467 428.013 713 428.84C712.533 429.667 712.3 431.053 712.3 433C712.3 434.947 712.533 436.333 713 437.16C713.467 437.987 714.067 438.4 714.8 438.4ZM724.598 426H727.598L731.098 434.4L731.458 435.28L731.618 435.7H731.698L731.638 435.28C731.611 435.12 731.598 434.827 731.598 434.4V426H734.398V440H731.398L727.898 431.6L727.538 430.72L727.378 430.3H727.298L727.338 430.72C727.378 431.24 727.398 431.533 727.398 431.6V440H724.598V426Z" fill="white"/>
<path d="M589.261 373.204C588.269 374.164 588.243 375.747 589.204 376.739L604.855 392.903C605.816 393.895 607.398 393.921 608.39 392.96C609.382 392 609.408 390.417 608.447 389.425L594.535 375.057L608.903 361.145C609.895 360.184 609.921 358.602 608.96 357.61C608 356.618 606.417 356.592 605.425 357.553L589.261 373.204ZM653.04 373.5L591.04 372.5L590.96 377.5L652.96 378.5L653.04 373.5Z" fill="black"/>
<path d="M586.259 478.206C585.268 479.168 585.244 480.75 586.206 481.741L601.877 497.887C602.838 498.878 604.421 498.901 605.412 497.94C606.403 496.978 606.426 495.395 605.465 494.404L591.535 480.053L605.887 466.123C606.877 465.162 606.901 463.579 605.939 462.588C604.978 461.597 603.395 461.574 602.404 462.535L586.259 478.206ZM655.037 478.5L588.037 477.5L587.963 482.5L654.963 483.5L655.037 478.5Z" fill="black"/>
<path d="M868.287 569.692L868.287 572.192L870.788 572.193L870.787 569.692L868.287 569.692ZM608.021 567.828C607.044 568.804 607.043 570.387 608.019 571.364L623.923 587.28C624.899 588.256 626.482 588.257 627.459 587.281C628.436 586.305 628.436 584.722 627.46 583.746L613.323 569.598L627.471 555.461C628.447 554.485 628.448 552.902 627.472 551.926C626.496 550.949 624.913 550.949 623.936 551.924L608.021 567.828ZM865.718 363.001L865.787 569.693L870.787 569.692L870.718 362.999L865.718 363.001ZM868.288 567.192L609.789 567.097L609.787 572.097L868.287 572.192L868.288 567.192Z" fill="black"/>
<rect x="754.597" y="195" width="74.8516" height="73.9621" transform="rotate(45.3269 754.597 195)" fill="white"/>
<path d="M722.316 236.3H723.966L725.891 240.92L726.089 241.404L726.177 241.635H726.221L726.188 241.404C726.174 241.316 726.166 241.155 726.166 240.92V236.3H727.706V244H726.056L724.131 239.38L723.933 238.896L723.845 238.665H723.801L723.823 238.896C723.845 239.182 723.856 239.343 723.856 239.38V244H722.316V236.3ZM732.603 244.11C731.789 244.11 731.162 243.872 730.722 243.395C730.289 242.918 730.073 242.203 730.073 241.25C730.073 240.297 730.289 239.582 730.722 239.105C731.162 238.628 731.789 238.39 732.603 238.39C733.417 238.39 734.04 238.628 734.473 239.105C734.913 239.582 735.133 240.297 735.133 241.25C735.133 242.203 734.913 242.918 734.473 243.395C734.04 243.872 733.417 244.11 732.603 244.11ZM732.603 243.12C733.263 243.12 733.593 242.497 733.593 241.25C733.593 240.003 733.263 239.38 732.603 239.38C731.943 239.38 731.613 240.003 731.613 241.25C731.613 242.497 731.943 243.12 732.603 243.12ZM739.479 244.11C738.848 244.11 738.349 243.938 737.983 243.593C737.623 243.248 737.444 242.797 737.444 242.24V239.49H736.729V238.83L738.379 237.18H738.984V238.5H740.249V239.49H738.984V242.24C738.984 242.533 739.039 242.753 739.149 242.9C739.259 243.047 739.405 243.12 739.589 243.12C739.809 243.12 740.025 243.047 740.238 242.9C740.333 242.834 740.428 242.761 740.524 242.68H740.634L741.129 243.56C740.938 243.685 740.773 243.776 740.634 243.835C740.238 244.018 739.853 244.11 739.479 244.11ZM743.659 237.785C743.439 237.785 743.245 237.704 743.076 237.543C742.915 237.374 742.834 237.18 742.834 236.96C742.834 236.74 742.915 236.549 743.076 236.388C743.245 236.219 743.439 236.135 743.659 236.135C743.879 236.135 744.07 236.219 744.231 236.388C744.4 236.549 744.484 236.74 744.484 236.96C744.484 237.18 744.4 237.374 744.231 237.543C744.07 237.704 743.879 237.785 743.659 237.785ZM742.889 244V238.5H744.429V244H742.889ZM747.017 239.49H746.412V238.5H747.017V238.06C747.017 237.495 747.204 237.044 747.578 236.707C747.959 236.362 748.487 236.19 749.162 236.19C749.507 236.19 749.892 236.282 750.317 236.465C750.456 236.524 750.621 236.615 750.812 236.74L750.317 237.62H750.207C750.112 237.539 750.016 237.466 749.921 237.4C749.708 237.253 749.492 237.18 749.272 237.18C749.074 237.18 748.905 237.261 748.766 237.422C748.627 237.576 748.557 237.789 748.557 238.06V238.5H749.932V239.49H748.557V244H747.017V239.49ZM752.74 237.785C752.52 237.785 752.325 237.704 752.157 237.543C751.995 237.374 751.915 237.18 751.915 236.96C751.915 236.74 751.995 236.549 752.157 236.388C752.325 236.219 752.52 236.135 752.74 236.135C752.96 236.135 753.15 236.219 753.312 236.388C753.48 236.549 753.565 236.74 753.565 236.96C753.565 237.18 753.48 237.374 753.312 237.543C753.15 237.704 752.96 237.785 752.74 237.785ZM751.97 244V238.5H753.51V244H751.97ZM758.408 244.11C756.611 244.11 755.713 243.157 755.713 241.25C755.713 240.297 755.933 239.582 756.373 239.105C756.813 238.628 757.454 238.39 758.298 238.39C758.716 238.39 759.163 238.482 759.64 238.665C759.786 238.724 759.962 238.815 760.168 238.94L759.673 239.82H759.563C759.46 239.725 759.357 239.651 759.255 239.6C758.998 239.453 758.716 239.38 758.408 239.38C758.034 239.38 757.748 239.523 757.55 239.809C757.352 240.088 757.253 240.568 757.253 241.25C757.253 241.939 757.355 242.423 757.561 242.702C757.766 242.981 758.085 243.12 758.518 243.12C758.826 243.12 759.108 243.047 759.365 242.9C759.467 242.849 759.57 242.775 759.673 242.68H759.783L760.278 243.56C760.072 243.685 759.896 243.776 759.75 243.835C759.31 244.018 758.862 244.11 758.408 244.11ZM763.958 244.11C763.313 244.11 762.811 243.956 762.451 243.648C762.099 243.333 761.923 242.918 761.923 242.405C761.923 241.855 762.121 241.426 762.517 241.118C762.921 240.803 763.548 240.645 764.398 240.645H765.168V240.48C765.168 240.091 765.084 239.813 764.915 239.644C764.747 239.468 764.483 239.38 764.123 239.38C763.815 239.38 763.533 239.453 763.276 239.6C763.174 239.651 763.071 239.725 762.968 239.82H762.858L762.363 238.94C762.539 238.823 762.712 238.731 762.88 238.665C763.357 238.482 763.808 238.39 764.233 238.39C764.747 238.39 765.19 238.482 765.564 238.665C765.938 238.841 766.221 239.087 766.411 239.402C766.609 239.717 766.708 240.077 766.708 240.48V244H765.608L765.498 243.34H765.443C765.319 243.501 765.194 243.63 765.069 243.725C764.761 243.982 764.391 244.11 763.958 244.11ZM764.233 243.065C764.461 243.065 764.684 242.955 764.904 242.735C765.007 242.632 765.095 242.522 765.168 242.405V241.635H764.398C763.775 241.635 763.463 241.892 763.463 242.405C763.463 242.603 763.529 242.764 763.661 242.889C763.801 243.006 763.991 243.065 764.233 243.065ZM771.329 244.11C770.698 244.11 770.199 243.938 769.833 243.593C769.473 243.248 769.294 242.797 769.294 242.24V239.49H768.579V238.83L770.229 237.18H770.834V238.5H772.099V239.49H770.834V242.24C770.834 242.533 770.889 242.753 770.999 242.9C771.109 243.047 771.255 243.12 771.439 243.12C771.659 243.12 771.875 243.047 772.088 242.9C772.183 242.834 772.278 242.761 772.374 242.68H772.484L772.979 243.56C772.788 243.685 772.623 243.776 772.484 243.835C772.088 244.018 771.703 244.11 771.329 244.11ZM775.509 237.785C775.289 237.785 775.095 237.704 774.926 237.543C774.765 237.374 774.684 237.18 774.684 236.96C774.684 236.74 774.765 236.549 774.926 236.388C775.095 236.219 775.289 236.135 775.509 236.135C775.729 236.135 775.92 236.219 776.081 236.388C776.25 236.549 776.334 236.74 776.334 236.96C776.334 237.18 776.25 237.374 776.081 237.543C775.92 237.704 775.729 237.785 775.509 237.785ZM774.739 244V238.5H776.279V244H774.739ZM781.012 244.11C780.198 244.11 779.571 243.872 779.131 243.395C778.698 242.918 778.482 242.203 778.482 241.25C778.482 240.297 778.698 239.582 779.131 239.105C779.571 238.628 780.198 238.39 781.012 238.39C781.826 238.39 782.449 238.628 782.882 239.105C783.322 239.582 783.542 240.297 783.542 241.25C783.542 242.203 783.322 242.918 782.882 243.395C782.449 243.872 781.826 244.11 781.012 244.11ZM781.012 243.12C781.672 243.12 782.002 242.497 782.002 241.25C782.002 240.003 781.672 239.38 781.012 239.38C780.352 239.38 780.022 240.003 780.022 241.25C780.022 242.497 780.352 243.12 781.012 243.12ZM785.743 238.5H786.843L786.953 239.16H787.008C787.081 239.05 787.206 238.922 787.382 238.775C787.726 238.518 788.097 238.39 788.493 238.39C789.16 238.39 789.673 238.573 790.033 238.94C790.399 239.299 790.583 239.813 790.583 240.48V244H789.043V240.48C789.043 240.135 788.969 239.875 788.823 239.699C788.676 239.523 788.474 239.435 788.218 239.435C787.976 239.435 787.745 239.545 787.525 239.765C787.451 239.853 787.371 239.963 787.283 240.095V244H785.743V238.5ZM794.875 244.11C794.295 244.11 793.753 244.018 793.247 243.835C793.056 243.769 792.847 243.677 792.62 243.56L793.115 242.68H793.225C793.364 242.768 793.496 242.841 793.621 242.9C793.929 243.047 794.292 243.12 794.71 243.12C795.076 243.12 795.34 243.065 795.502 242.955C795.67 242.838 795.755 242.687 795.755 242.504C795.755 242.328 795.663 242.189 795.48 242.086C795.296 241.983 795.014 241.873 794.633 241.756C794.229 241.624 793.903 241.499 793.654 241.382C793.404 241.265 793.188 241.096 793.005 240.876C792.821 240.656 792.73 240.377 792.73 240.04C792.73 239.549 792.924 239.153 793.313 238.852C793.701 238.544 794.277 238.39 795.04 238.39C795.502 238.39 796 238.482 796.536 238.665C796.719 238.731 796.917 238.823 797.13 238.94L796.635 239.82H796.525C796.393 239.725 796.268 239.651 796.151 239.6C795.843 239.453 795.509 239.38 795.15 239.38C794.864 239.38 794.644 239.435 794.49 239.545C794.343 239.648 794.27 239.776 794.27 239.93C794.27 240.099 794.358 240.234 794.534 240.337C794.717 240.44 795.003 240.553 795.392 240.678C795.78 240.803 796.103 240.927 796.36 241.052C796.616 241.169 796.836 241.338 797.02 241.558C797.203 241.778 797.295 242.057 797.295 242.394C797.295 242.922 797.097 243.34 796.701 243.648C796.305 243.956 795.696 244.11 794.875 244.11ZM733.764 258.11C732.95 258.11 732.323 257.872 731.883 257.395C731.45 256.918 731.234 256.203 731.234 255.25C731.234 254.297 731.45 253.582 731.883 253.105C732.323 252.628 732.95 252.39 733.764 252.39C734.578 252.39 735.201 252.628 735.634 253.105C736.074 253.582 736.294 254.297 736.294 255.25C736.294 256.203 736.074 256.918 735.634 257.395C735.201 257.872 734.578 258.11 733.764 258.11ZM733.764 257.12C734.424 257.12 734.754 256.497 734.754 255.25C734.754 254.003 734.424 253.38 733.764 253.38C733.104 253.38 732.774 254.003 732.774 255.25C732.774 256.497 733.104 257.12 733.764 257.12ZM738.495 252.5H739.595L739.705 253.16H739.76C739.833 253.05 739.958 252.922 740.134 252.775C740.478 252.518 740.849 252.39 741.245 252.39C741.912 252.39 742.425 252.573 742.785 252.94C743.151 253.299 743.335 253.813 743.335 254.48V258H741.795V254.48C741.795 254.135 741.721 253.875 741.575 253.699C741.428 253.523 741.226 253.435 740.97 253.435C740.728 253.435 740.497 253.545 740.277 253.765C740.203 253.853 740.123 253.963 740.035 254.095V258H738.495V252.5ZM752.3 258.11C751.486 258.11 750.859 257.872 750.419 257.395C749.986 256.918 749.77 256.203 749.77 255.25C749.77 254.297 749.986 253.582 750.419 253.105C750.859 252.628 751.486 252.39 752.3 252.39C753.114 252.39 753.737 252.628 754.17 253.105C754.61 253.582 754.83 254.297 754.83 255.25C754.83 256.203 754.61 256.918 754.17 257.395C753.737 257.872 753.114 258.11 752.3 258.11ZM752.3 257.12C752.96 257.12 753.29 256.497 753.29 255.25C753.29 254.003 752.96 253.38 752.3 253.38C751.64 253.38 751.31 254.003 751.31 255.25C751.31 256.497 751.64 257.12 752.3 257.12ZM757.03 252.5H758.13L758.24 253.16H758.295C758.368 253.05 758.493 252.922 758.669 252.775C759.014 252.518 759.384 252.39 759.78 252.39C759.971 252.39 760.158 252.408 760.341 252.445C760.458 252.474 760.546 252.493 760.605 252.5L760.385 253.6H760.275C760.209 253.593 760.128 253.574 760.033 253.545C759.872 253.508 759.696 253.49 759.505 253.49C759.263 253.49 759.032 253.6 758.812 253.82C758.739 253.908 758.658 254.018 758.57 254.15V258H757.03V252.5ZM768.848 258.11C768.034 258.11 767.407 257.872 766.967 257.395C766.534 256.918 766.318 256.203 766.318 255.25C766.318 254.297 766.534 253.582 766.967 253.105C767.407 252.628 768.034 252.39 768.848 252.39C769.662 252.39 770.285 252.628 770.718 253.105C771.158 253.582 771.378 254.297 771.378 255.25C771.378 256.203 771.158 256.918 770.718 257.395C770.285 257.872 769.662 258.11 768.848 258.11ZM768.848 257.12C769.508 257.12 769.838 256.497 769.838 255.25C769.838 254.003 769.508 253.38 768.848 253.38C768.188 253.38 767.858 254.003 767.858 255.25C767.858 256.497 768.188 257.12 768.848 257.12ZM773.633 253.49H773.028V252.5H773.633V252.06C773.633 251.495 773.82 251.044 774.194 250.707C774.575 250.362 775.103 250.19 775.778 250.19C776.123 250.19 776.508 250.282 776.933 250.465C777.072 250.524 777.237 250.615 777.428 250.74L776.933 251.62H776.823C776.728 251.539 776.632 251.466 776.537 251.4C776.324 251.253 776.108 251.18 775.888 251.18C775.69 251.18 775.521 251.261 775.382 251.422C775.243 251.576 775.173 251.789 775.173 252.06V252.5H776.548V253.49H775.173V258H773.633V253.49ZM778.641 253.49H778.036V252.5H778.641V252.06C778.641 251.495 778.828 251.044 779.202 250.707C779.583 250.362 780.111 250.19 780.786 250.19C781.13 250.19 781.515 250.282 781.941 250.465C782.08 250.524 782.245 250.615 782.436 250.74L781.941 251.62H781.831C781.735 251.539 781.64 251.466 781.545 251.4C781.332 251.253 781.116 251.18 780.896 251.18C780.698 251.18 780.529 251.261 780.39 251.422C780.25 251.576 780.181 251.789 780.181 252.06V252.5H781.556V253.49H780.181V258H778.641V253.49ZM784.253 255.47C784.253 255.162 784.305 254.894 784.407 254.667C784.51 254.432 784.635 254.242 784.781 254.095C784.935 253.941 785.133 253.769 785.375 253.578C785.683 253.336 785.911 253.116 786.057 252.918C786.211 252.72 786.288 252.471 786.288 252.17C786.288 251.877 786.175 251.638 785.947 251.455C785.72 251.272 785.394 251.18 784.968 251.18C784.543 251.18 784.154 251.264 783.802 251.433C783.634 251.528 783.509 251.609 783.428 251.675H783.318L782.823 250.795C782.992 250.678 783.183 250.579 783.395 250.498C783.872 250.293 784.433 250.19 785.078 250.19C785.988 250.19 786.673 250.381 787.135 250.762C787.597 251.143 787.828 251.649 787.828 252.28C787.828 252.625 787.77 252.922 787.652 253.171C787.535 253.413 787.392 253.615 787.223 253.776C787.055 253.93 786.835 254.106 786.563 254.304C786.255 254.531 786.032 254.726 785.892 254.887C785.753 255.041 785.683 255.235 785.683 255.47V255.8H784.253V255.47ZM784.968 258.11C784.748 258.11 784.554 258.029 784.385 257.868C784.224 257.699 784.143 257.505 784.143 257.285C784.143 257.065 784.224 256.874 784.385 256.713C784.554 256.544 784.748 256.46 784.968 256.46C785.188 256.46 785.379 256.544 785.54 256.713C785.709 256.874 785.793 257.065 785.793 257.285C785.793 257.505 785.709 257.699 785.54 257.868C785.379 258.029 785.188 258.11 784.968 258.11Z" fill="black"/>
<path d="M846.3 338.2C844.633 338.2 843.333 337.62 842.4 336.46C841.467 335.287 841 333.467 841 331C841 328.533 841.467 326.72 842.4 325.56C843.333 324.387 844.633 323.8 846.3 323.8C847.967 323.8 849.267 324.387 850.2 325.56C851.133 326.72 851.6 328.533 851.6 331C851.6 333.467 851.133 335.287 850.2 336.46C849.267 337.62 847.967 338.2 846.3 338.2ZM846.3 336.4C847.033 336.4 847.633 335.987 848.1 335.16C848.567 334.333 848.8 332.947 848.8 331C848.8 329.053 848.567 327.667 848.1 326.84C847.633 326.013 847.033 325.6 846.3 325.6C845.567 325.6 844.967 326.013 844.5 326.84C844.033 327.667 843.8 329.053 843.8 331C843.8 332.947 844.033 334.333 844.5 335.16C844.967 335.987 845.567 336.4 846.3 336.4ZM856.098 338V324H864.498V325.8H858.898V330H863.298V331.8H858.898V338H856.098ZM868.405 338V324H876.805V325.8H871.205V330H875.605V331.8H871.205V338H868.405Z" fill="black"/>
</g>
<defs>
<clipPath id="clip0">
<rect width="996" height="639" fill="white"/>
</clipPath>
</defs>
</svg>
