<svg width="1107" height="639" viewBox="0 0 1107 639" fill="none" xmlns="http://www.w3.org/2000/svg">
<rect width="1107" height="639" fill="#E4F7FD"/>
<rect x="36" y="62" width="149" height="56" rx="15" fill="#BCE0EC"/>
<rect x="760" y="226" width="149" height="56" rx="15" fill="#00769B"/>
<rect x="655" y="356" width="149" height="56" rx="15" fill="#00769B"/>
<rect x="492" y="226" width="149" height="56" rx="15" fill="#00769B"/>
<path d="M224 241C224 232.716 230.716 226 239 226H358C366.284 226 373 232.716 373 241V267C373 275.284 366.284 282 358 282H239C230.716 282 224 275.284 224 267V241Z" fill="#00769B"/>
<path d="M245 141C245 139.895 245.895 139 247 139H392C393.105 139 394 139.895 394 141V193C394 194.105 393.105 195 392 195H247C245.895 195 245 194.105 245 193V141Z" fill="#F1F9FC"/>
<rect x="659" y="475" width="149" height="56" rx="15" fill="#00769B"/>
<rect x="404" y="419" width="149" height="56" rx="15" fill="#00769B"/>
<rect x="943" y="412" width="149" height="63" fill="#98009B"/>
<path d="M69.87 98V82.6H79.11V84.58H72.95V89.2H77.79V91.18H72.95V98H69.87ZM83.4086 98V82.6H86.4886V96.02H92.4286V98H83.4086ZM100.89 98.22C99.0567 98.22 97.6267 97.582 96.6 96.306C95.5733 95.0153 95.06 93.0133 95.06 90.3C95.06 87.5867 95.5733 85.592 96.6 84.316C97.6267 83.0253 99.0567 82.38 100.89 82.38C102.723 82.38 104.153 83.0253 105.18 84.316C106.207 85.592 106.72 87.5867 106.72 90.3C106.72 93.0133 106.207 95.0153 105.18 96.306C104.153 97.582 102.723 98.22 100.89 98.22ZM100.89 96.24C101.697 96.24 102.357 95.7853 102.87 94.876C103.383 93.9667 103.64 92.4413 103.64 90.3C103.64 88.1587 103.383 86.6333 102.87 85.724C102.357 84.8147 101.697 84.36 100.89 84.36C100.083 84.36 99.4233 84.8147 98.91 85.724C98.3967 86.6333 98.14 88.1587 98.14 90.3C98.14 92.4413 98.3967 93.9667 98.91 94.876C99.4233 95.7853 100.083 96.24 100.89 96.24ZM110.391 82.6H113.471L115.671 92.28C115.73 92.5587 115.774 92.8447 115.803 93.138L115.847 93.6H115.935L115.979 93.138C116.009 92.8447 116.053 92.5587 116.111 92.28L118.553 82.6H120.709L123.151 92.28C123.225 92.5733 123.269 92.8593 123.283 93.138L123.327 93.6H123.415L123.459 93.138C123.474 92.8593 123.518 92.5733 123.591 92.28L125.791 82.6H128.563L124.823 98H122.051L119.741 88.43C119.683 88.1953 119.639 87.8873 119.609 87.506L119.565 87H119.477L119.433 87.506C119.404 87.8873 119.36 88.1953 119.301 88.43L116.991 98H114.131L110.391 82.6ZM149.515 98V96.02H151.715V85.68L149.955 86.89L148.745 85.24L151.935 82.6H154.795V96.02H156.995V98H149.515Z" fill="black"/>
<path d="M982.6 438.2C980.787 438.2 979.4 437.62 978.44 436.46C977.48 435.3 977 433.48 977 431C977 428.533 977.467 426.72 978.4 425.56C979.347 424.387 980.68 423.8 982.4 423.8C983.414 423.8 984.32 423.987 985.12 424.36C985.48 424.507 985.807 424.687 986.1 424.9L985.2 426.5H985C984.854 426.367 984.64 426.22 984.36 426.06C983.774 425.753 983.187 425.6 982.6 425.6C981.72 425.6 981.034 426.007 980.54 426.82C980.047 427.633 979.8 429.027 979.8 431C979.8 432.987 980.054 434.387 980.56 435.2C981.08 436 981.827 436.4 982.8 436.4C983.414 436.4 984 436.253 984.56 435.96C984.854 435.787 985.067 435.633 985.2 435.5H985.4L986.3 437.1C986.034 437.313 985.707 437.5 985.32 437.66C984.547 438.02 983.64 438.2 982.6 438.2ZM989.903 428H991.903L992.103 429.2H992.203C992.337 429 992.563 428.767 992.883 428.5C993.51 428.033 994.183 427.8 994.903 427.8C995.25 427.8 995.59 427.833 995.923 427.9C996.137 427.953 996.297 427.987 996.403 428L996.003 430H995.803C995.683 429.987 995.537 429.953 995.363 429.9C995.07 429.833 994.75 429.8 994.403 429.8C993.963 429.8 993.543 430 993.143 430.4C993.01 430.56 992.863 430.76 992.703 431V438H989.903V428ZM1003.99 438.2C1000.66 438.2 998.994 436.467 998.994 433C998.994 431.293 999.381 430 1000.15 429.12C1000.93 428.24 1002.01 427.8 1003.39 427.8C1004.77 427.8 1005.84 428.227 1006.61 429.08C1007.4 429.933 1007.79 431.173 1007.79 432.8V433.3L1007.19 433.9H1001.79C1001.79 435.567 1002.59 436.4 1004.19 436.4C1004.75 436.4 1005.27 436.267 1005.73 436C1005.92 435.907 1006.11 435.773 1006.29 435.6H1006.49L1007.39 437.2C1007.02 437.427 1006.7 437.593 1006.43 437.7C1005.63 438.033 1004.82 438.2 1003.99 438.2ZM1004.99 432.1C1004.99 431.3 1004.83 430.687 1004.51 430.26C1004.21 429.82 1003.83 429.6 1003.39 429.6C1002.95 429.6 1002.57 429.82 1002.25 430.26C1001.95 430.687 1001.79 431.3 1001.79 432.1H1004.99ZM1014.88 438.2C1013.71 438.2 1012.8 437.92 1012.14 437.36C1011.5 436.787 1011.18 436.033 1011.18 435.1C1011.18 434.1 1011.54 433.32 1012.26 432.76C1013 432.187 1014.14 431.9 1015.68 431.9H1017.08V431.6C1017.08 430.893 1016.93 430.387 1016.62 430.08C1016.32 429.76 1015.84 429.6 1015.18 429.6C1014.62 429.6 1014.11 429.733 1013.64 430C1013.46 430.093 1013.27 430.227 1013.08 430.4H1012.88L1011.98 428.8C1012.3 428.587 1012.62 428.42 1012.92 428.3C1013.79 427.967 1014.61 427.8 1015.38 427.8C1016.32 427.8 1017.12 427.967 1017.8 428.3C1018.48 428.62 1019 429.067 1019.34 429.64C1019.7 430.213 1019.88 430.867 1019.88 431.6V438H1017.88L1017.68 436.8H1017.58C1017.36 437.093 1017.13 437.327 1016.9 437.5C1016.34 437.967 1015.67 438.2 1014.88 438.2ZM1015.38 436.3C1015.8 436.3 1016.2 436.1 1016.6 435.7C1016.79 435.513 1016.95 435.313 1017.08 435.1V433.7H1015.68C1014.55 433.7 1013.98 434.167 1013.98 435.1C1013.98 435.46 1014.1 435.753 1014.34 435.98C1014.6 436.193 1014.94 436.3 1015.38 436.3ZM1028.29 438.2C1027.14 438.2 1026.23 437.887 1025.57 437.26C1024.91 436.633 1024.59 435.813 1024.59 434.8V429.8H1023.29V428.6L1026.29 425.6H1027.39V428H1029.69V429.8H1027.39V434.8C1027.39 435.333 1027.49 435.733 1027.69 436C1027.89 436.267 1028.15 436.4 1028.49 436.4C1028.89 436.4 1029.28 436.267 1029.67 436C1029.84 435.88 1030.01 435.747 1030.19 435.6H1030.39L1031.29 437.2C1030.94 437.427 1030.64 437.593 1030.39 437.7C1029.67 438.033 1028.97 438.2 1028.29 438.2ZM1038.89 438.2C1035.55 438.2 1033.89 436.467 1033.89 433C1033.89 431.293 1034.27 430 1035.05 429.12C1035.82 428.24 1036.9 427.8 1038.29 427.8C1039.66 427.8 1040.73 428.227 1041.51 429.08C1042.29 429.933 1042.69 431.173 1042.69 432.8V433.3L1042.09 433.9H1036.69C1036.69 435.567 1037.49 436.4 1039.09 436.4C1039.65 436.4 1040.16 436.267 1040.63 436C1040.81 435.907 1041 435.773 1041.19 435.6H1041.39L1042.29 437.2C1041.91 437.427 1041.59 437.593 1041.33 437.7C1040.53 438.033 1039.71 438.2 1038.89 438.2ZM1039.89 432.1C1039.89 431.3 1039.73 430.687 1039.41 430.26C1039.1 429.82 1038.73 429.6 1038.29 429.6C1037.85 429.6 1037.47 429.82 1037.15 430.26C1036.84 430.687 1036.69 431.3 1036.69 432.1H1039.89ZM982.6 463.2C980.787 463.2 979.4 462.62 978.44 461.46C977.48 460.3 977 458.48 977 456C977 453.533 977.467 451.72 978.4 450.56C979.347 449.387 980.68 448.8 982.4 448.8C983.414 448.8 984.32 448.987 985.12 449.36C985.48 449.507 985.807 449.687 986.1 449.9L985.2 451.5H985C984.854 451.367 984.64 451.22 984.36 451.06C983.774 450.753 983.187 450.6 982.6 450.6C981.72 450.6 981.034 451.007 980.54 451.82C980.047 452.633 979.8 454.027 979.8 456C979.8 457.987 980.054 459.387 980.56 460.2C981.08 461 981.827 461.4 982.8 461.4C983.414 461.4 984 461.253 984.56 460.96C984.854 460.787 985.067 460.633 985.2 460.5H985.4L986.3 462.1C986.034 462.313 985.707 462.5 985.32 462.66C984.547 463.02 983.64 463.2 982.6 463.2ZM989.903 449.8L990.703 449H992.703V453.7C992.837 453.567 993.03 453.42 993.283 453.26C993.817 452.953 994.357 452.8 994.903 452.8C996.117 452.8 997.05 453.133 997.703 453.8C998.37 454.453 998.703 455.387 998.703 456.6V463H995.903V456.6C995.903 455.973 995.77 455.5 995.503 455.18C995.237 454.86 994.87 454.7 994.403 454.7C993.963 454.7 993.543 454.9 993.143 455.3C993.01 455.46 992.863 455.66 992.703 455.9V463H989.903V449.8ZM1006.31 463.2C1005.13 463.2 1004.22 462.92 1003.57 462.36C1002.93 461.787 1002.61 461.033 1002.61 460.1C1002.61 459.1 1002.97 458.32 1003.69 457.76C1004.42 457.187 1005.56 456.9 1007.11 456.9H1008.51V456.6C1008.51 455.893 1008.35 455.387 1008.05 455.08C1007.74 454.76 1007.26 454.6 1006.61 454.6C1006.05 454.6 1005.53 454.733 1005.07 455C1004.88 455.093 1004.69 455.227 1004.51 455.4H1004.31L1003.41 453.8C1003.73 453.587 1004.04 453.42 1004.35 453.3C1005.21 452.967 1006.03 452.8 1006.81 452.8C1007.74 452.8 1008.55 452.967 1009.23 453.3C1009.91 453.62 1010.42 454.067 1010.77 454.64C1011.13 455.213 1011.31 455.867 1011.31 456.6V463H1009.31L1009.11 461.8H1009.01C1008.78 462.093 1008.55 462.327 1008.33 462.5C1007.77 462.967 1007.09 463.2 1006.31 463.2ZM1006.81 461.3C1007.22 461.3 1007.63 461.1 1008.03 460.7C1008.21 460.513 1008.37 460.313 1008.51 460.1V458.7H1007.11C1005.97 458.7 1005.41 459.167 1005.41 460.1C1005.41 460.46 1005.53 460.753 1005.77 460.98C1006.02 461.193 1006.37 461.3 1006.81 461.3ZM1015.81 453H1017.81L1018.01 454.2H1018.11C1018.24 454 1018.47 453.767 1018.79 453.5C1019.41 453.033 1020.09 452.8 1020.81 452.8C1022.02 452.8 1022.95 453.133 1023.61 453.8C1024.27 454.453 1024.61 455.387 1024.61 456.6V463H1021.81V456.6C1021.81 455.973 1021.67 455.5 1021.41 455.18C1021.14 454.86 1020.77 454.7 1020.31 454.7C1019.87 454.7 1019.45 454.9 1019.05 455.3C1018.91 455.46 1018.77 455.66 1018.61 455.9V463H1015.81V453ZM1029.11 453H1031.11L1031.31 454.2H1031.41C1031.55 454 1031.77 453.767 1032.09 453.5C1032.72 453.033 1033.39 452.8 1034.11 452.8C1035.33 452.8 1036.26 453.133 1036.91 453.8C1037.58 454.453 1037.91 455.387 1037.91 456.6V463H1035.11V456.6C1035.11 455.973 1034.98 455.5 1034.71 455.18C1034.45 454.86 1034.08 454.7 1033.61 454.7C1033.17 454.7 1032.75 454.9 1032.35 455.3C1032.22 455.46 1032.07 455.66 1031.91 455.9V463H1029.11V453ZM1046.82 463.2C1043.48 463.2 1041.82 461.467 1041.82 458C1041.82 456.293 1042.2 455 1042.98 454.12C1043.75 453.24 1044.83 452.8 1046.22 452.8C1047.59 452.8 1048.66 453.227 1049.44 454.08C1050.22 454.933 1050.62 456.173 1050.62 457.8V458.3L1050.02 458.9H1044.62C1044.62 460.567 1045.42 461.4 1047.02 461.4C1047.58 461.4 1048.09 461.267 1048.56 461C1048.74 460.907 1048.93 460.773 1049.12 460.6H1049.32L1050.22 462.2C1049.84 462.427 1049.52 462.593 1049.26 462.7C1048.46 463.033 1047.64 463.2 1046.82 463.2ZM1047.82 457.1C1047.82 456.3 1047.66 455.687 1047.34 455.26C1047.03 454.82 1046.66 454.6 1046.22 454.6C1045.78 454.6 1045.4 454.82 1045.08 455.26C1044.77 455.687 1044.62 456.3 1044.62 457.1H1047.82ZM1054.61 463V449.8L1055.41 449H1057.41V463H1054.61Z" fill="#FFFCFC"/>
<path d="M724.898 481H727.898L731.398 489.4L731.758 490.28L731.918 490.7H731.998L731.938 490.28C731.911 490.12 731.898 489.827 731.898 489.4V481H734.698V495H731.698L728.198 486.6L727.838 485.72L727.678 485.3H727.598L727.638 485.72C727.678 486.24 727.698 486.533 727.698 486.6V495H724.898V481ZM743.601 495.2C742.121 495.2 740.981 494.767 740.181 493.9C739.395 493.033 739.001 491.733 739.001 490C739.001 488.267 739.395 486.967 740.181 486.1C740.981 485.233 742.121 484.8 743.601 484.8C745.081 484.8 746.215 485.233 747.001 486.1C747.801 486.967 748.201 488.267 748.201 490C748.201 491.733 747.801 493.033 747.001 493.9C746.215 494.767 745.081 495.2 743.601 495.2ZM743.601 493.4C744.801 493.4 745.401 492.267 745.401 490C745.401 487.733 744.801 486.6 743.601 486.6C742.401 486.6 741.801 487.733 741.801 490C741.801 492.267 742.401 493.4 743.601 493.4ZM700.556 520V506H708.956V507.8H703.356V512H707.756V513.8H703.356V520H700.556ZM715.958 520.2C714.478 520.2 713.338 519.767 712.538 518.9C711.752 518.033 711.358 516.733 711.358 515C711.358 513.267 711.752 511.967 712.538 511.1C713.338 510.233 714.478 509.8 715.958 509.8C717.438 509.8 718.572 510.233 719.358 511.1C720.158 511.967 720.558 513.267 720.558 515C720.558 516.733 720.158 518.033 719.358 518.9C718.572 519.767 717.438 520.2 715.958 520.2ZM715.958 518.4C717.158 518.4 717.758 517.267 717.758 515C717.758 512.733 717.158 511.6 715.958 511.6C714.758 511.6 714.158 512.733 714.158 515C714.158 517.267 714.758 518.4 715.958 518.4ZM724.559 520V506.8L725.359 506H727.359V520H724.559ZM735.364 520.2C734.164 520.2 733.198 519.76 732.464 518.88C731.731 517.987 731.364 516.693 731.364 515C731.364 513.293 731.738 512 732.484 511.12C733.244 510.24 734.271 509.8 735.564 509.8C735.844 509.8 736.084 509.827 736.284 509.88C736.498 509.933 736.738 510.007 737.004 510.1L737.564 510.4V506.8L738.364 506H740.364V520H738.364L738.164 518.8H738.064C737.838 519.093 737.611 519.327 737.384 519.5C736.824 519.967 736.151 520.2 735.364 520.2ZM735.864 518.3C736.304 518.3 736.724 518.1 737.124 517.7C737.258 517.54 737.404 517.34 737.564 517.1V512.2L737.144 511.9C736.771 511.7 736.411 511.6 736.064 511.6C735.464 511.6 734.998 511.86 734.664 512.38C734.331 512.9 734.164 513.773 734.164 515C734.164 516.16 734.318 517 734.624 517.52C734.944 518.04 735.358 518.3 735.864 518.3ZM749.356 520.2C746.023 520.2 744.356 518.467 744.356 515C744.356 513.293 744.743 512 745.516 511.12C746.289 510.24 747.369 509.8 748.756 509.8C750.129 509.8 751.203 510.227 751.976 511.08C752.763 511.933 753.156 513.173 753.156 514.8V515.3L752.556 515.9H747.156C747.156 517.567 747.956 518.4 749.556 518.4C750.116 518.4 750.629 518.267 751.096 518C751.283 517.907 751.469 517.773 751.656 517.6H751.856L752.756 519.2C752.383 519.427 752.063 519.593 751.796 519.7C750.996 520.033 750.183 520.2 749.356 520.2ZM750.356 514.1C750.356 513.3 750.196 512.687 749.876 512.26C749.569 511.82 749.196 511.6 748.756 511.6C748.316 511.6 747.936 511.82 747.616 512.26C747.309 512.687 747.156 513.3 747.156 514.1H750.356ZM757.146 510H759.146L759.346 511.2H759.446C759.58 511 759.806 510.767 760.126 510.5C760.753 510.033 761.426 509.8 762.146 509.8C762.493 509.8 762.833 509.833 763.166 509.9C763.38 509.953 763.54 509.987 763.646 510L763.246 512H763.046C762.926 511.987 762.78 511.953 762.606 511.9C762.313 511.833 761.993 511.8 761.646 511.8C761.206 511.8 760.786 512 760.386 512.4C760.253 512.56 760.106 512.76 759.946 513V520H757.146V510ZM770.137 520.2C769.084 520.2 768.097 520.033 767.177 519.7C766.83 519.58 766.45 519.413 766.037 519.2L766.937 517.6H767.137C767.39 517.76 767.63 517.893 767.857 518C768.417 518.267 769.077 518.4 769.837 518.4C770.504 518.4 770.984 518.3 771.277 518.1C771.584 517.887 771.737 517.613 771.737 517.28C771.737 516.96 771.57 516.707 771.237 516.52C770.904 516.333 770.39 516.133 769.697 515.92C768.964 515.68 768.37 515.453 767.917 515.24C767.464 515.027 767.07 514.72 766.737 514.32C766.404 513.92 766.237 513.413 766.237 512.8C766.237 511.907 766.59 511.187 767.297 510.64C768.004 510.08 769.05 509.8 770.437 509.8C771.277 509.8 772.184 509.967 773.157 510.3C773.49 510.42 773.85 510.587 774.237 510.8L773.337 512.4H773.137C772.897 512.227 772.67 512.093 772.457 512C771.897 511.733 771.29 511.6 770.637 511.6C770.117 511.6 769.717 511.7 769.437 511.9C769.17 512.087 769.037 512.32 769.037 512.6C769.037 512.907 769.197 513.153 769.517 513.34C769.85 513.527 770.37 513.733 771.077 513.96C771.784 514.187 772.37 514.413 772.837 514.64C773.304 514.853 773.704 515.16 774.037 515.56C774.37 515.96 774.537 516.467 774.537 517.08C774.537 518.04 774.177 518.8 773.457 519.36C772.737 519.92 771.63 520.2 770.137 520.2Z" fill="#FFFCFC"/>
<path d="M709.377 361H712.177L714.178 369.8C714.231 370.053 714.271 370.313 714.297 370.58L714.337 371H714.417L714.457 370.58C714.484 370.313 714.524 370.053 714.577 369.8L716.798 361H718.758L720.978 369.8C721.044 370.067 721.084 370.327 721.098 370.58L721.137 371H721.217L721.258 370.58C721.271 370.327 721.311 370.067 721.378 369.8L723.378 361H725.898L722.498 375H719.978L717.878 366.3C717.824 366.087 717.784 365.807 717.757 365.46L717.718 365H717.638L717.598 365.46C717.571 365.807 717.531 366.087 717.477 366.3L715.378 375H712.777L709.377 361ZM731.152 363.7C730.752 363.7 730.399 363.553 730.092 363.26C729.799 362.953 729.652 362.6 729.652 362.2C729.652 361.8 729.799 361.453 730.092 361.16C730.399 360.853 730.752 360.7 731.152 360.7C731.552 360.7 731.899 360.853 732.192 361.16C732.499 361.453 732.652 361.8 732.652 362.2C732.652 362.6 732.499 362.953 732.192 363.26C731.899 363.553 731.552 363.7 731.152 363.7ZM729.752 375V365H732.552V375H729.752ZM741.058 375.2C739.911 375.2 739.004 374.887 738.338 374.26C737.684 373.633 737.358 372.813 737.358 371.8V366.8H736.058V365.6L739.058 362.6H740.158V365H742.458V366.8H740.158V371.8C740.158 372.333 740.258 372.733 740.458 373C740.658 373.267 740.924 373.4 741.258 373.4C741.658 373.4 742.051 373.267 742.438 373C742.611 372.88 742.784 372.747 742.958 372.6H743.158L744.058 374.2C743.711 374.427 743.411 374.593 743.158 374.7C742.438 375.033 741.738 375.2 741.058 375.2ZM747.259 361.8L748.059 361H750.059V365.7C750.192 365.567 750.385 365.42 750.639 365.26C751.172 364.953 751.712 364.8 752.259 364.8C753.472 364.8 754.405 365.133 755.059 365.8C755.725 366.453 756.059 367.387 756.059 368.6V375H753.259V368.6C753.259 367.973 753.125 367.5 752.859 367.18C752.592 366.86 752.225 366.7 751.759 366.7C751.319 366.7 750.899 366.9 750.499 367.3C750.365 367.46 750.219 367.66 750.059 367.9V375H747.259V361.8ZM697.556 400V386H705.956V387.8H700.356V392H704.756V393.8H700.356V400H697.556ZM712.958 400.2C711.478 400.2 710.338 399.767 709.538 398.9C708.752 398.033 708.358 396.733 708.358 395C708.358 393.267 708.752 391.967 709.538 391.1C710.338 390.233 711.478 389.8 712.958 389.8C714.438 389.8 715.572 390.233 716.358 391.1C717.158 391.967 717.558 393.267 717.558 395C717.558 396.733 717.158 398.033 716.358 398.9C715.572 399.767 714.438 400.2 712.958 400.2ZM712.958 398.4C714.158 398.4 714.758 397.267 714.758 395C714.758 392.733 714.158 391.6 712.958 391.6C711.758 391.6 711.158 392.733 711.158 395C711.158 397.267 711.758 398.4 712.958 398.4ZM721.559 400V386.8L722.359 386H724.359V400H721.559ZM732.364 400.2C731.164 400.2 730.198 399.76 729.464 398.88C728.731 397.987 728.364 396.693 728.364 395C728.364 393.293 728.738 392 729.484 391.12C730.244 390.24 731.271 389.8 732.564 389.8C732.844 389.8 733.084 389.827 733.284 389.88C733.498 389.933 733.738 390.007 734.004 390.1L734.564 390.4V386.8L735.364 386H737.364V400H735.364L735.164 398.8H735.064C734.838 399.093 734.611 399.327 734.384 399.5C733.824 399.967 733.151 400.2 732.364 400.2ZM732.864 398.3C733.304 398.3 733.724 398.1 734.124 397.7C734.258 397.54 734.404 397.34 734.564 397.1V392.2L734.144 391.9C733.771 391.7 733.411 391.6 733.064 391.6C732.464 391.6 731.998 391.86 731.664 392.38C731.331 392.9 731.164 393.773 731.164 395C731.164 396.16 731.318 397 731.624 397.52C731.944 398.04 732.358 398.3 732.864 398.3ZM746.356 400.2C743.023 400.2 741.356 398.467 741.356 395C741.356 393.293 741.743 392 742.516 391.12C743.289 390.24 744.369 389.8 745.756 389.8C747.129 389.8 748.203 390.227 748.976 391.08C749.763 391.933 750.156 393.173 750.156 394.8V395.3L749.556 395.9H744.156C744.156 397.567 744.956 398.4 746.556 398.4C747.116 398.4 747.629 398.267 748.096 398C748.283 397.907 748.469 397.773 748.656 397.6H748.856L749.756 399.2C749.383 399.427 749.063 399.593 748.796 399.7C747.996 400.033 747.183 400.2 746.356 400.2ZM747.356 394.1C747.356 393.3 747.196 392.687 746.876 392.26C746.569 391.82 746.196 391.6 745.756 391.6C745.316 391.6 744.936 391.82 744.616 392.26C744.309 392.687 744.156 393.3 744.156 394.1H747.356ZM754.146 390H756.146L756.346 391.2H756.446C756.58 391 756.806 390.767 757.126 390.5C757.753 390.033 758.426 389.8 759.146 389.8C759.493 389.8 759.833 389.833 760.166 389.9C760.38 389.953 760.54 389.987 760.646 390L760.246 392H760.046C759.926 391.987 759.78 391.953 759.606 391.9C759.313 391.833 758.993 391.8 758.646 391.8C758.206 391.8 757.786 392 757.386 392.4C757.253 392.56 757.106 392.76 756.946 393V400H754.146V390ZM767.137 400.2C766.084 400.2 765.097 400.033 764.177 399.7C763.83 399.58 763.45 399.413 763.037 399.2L763.937 397.6H764.137C764.39 397.76 764.63 397.893 764.857 398C765.417 398.267 766.077 398.4 766.837 398.4C767.504 398.4 767.984 398.3 768.277 398.1C768.584 397.887 768.737 397.613 768.737 397.28C768.737 396.96 768.57 396.707 768.237 396.52C767.904 396.333 767.39 396.133 766.697 395.92C765.964 395.68 765.37 395.453 764.917 395.24C764.464 395.027 764.07 394.72 763.737 394.32C763.404 393.92 763.237 393.413 763.237 392.8C763.237 391.907 763.59 391.187 764.297 390.64C765.004 390.08 766.05 389.8 767.437 389.8C768.277 389.8 769.184 389.967 770.157 390.3C770.49 390.42 770.85 390.587 771.237 390.8L770.337 392.4H770.137C769.897 392.227 769.67 392.093 769.457 392C768.897 391.733 768.29 391.6 767.637 391.6C767.117 391.6 766.717 391.7 766.437 391.9C766.17 392.087 766.037 392.32 766.037 392.6C766.037 392.907 766.197 393.153 766.517 393.34C766.85 393.527 767.37 393.733 768.077 393.96C768.784 394.187 769.37 394.413 769.837 394.64C770.304 394.853 770.704 395.16 771.037 395.56C771.37 395.96 771.537 396.467 771.537 397.08C771.537 398.04 771.177 398.8 770.457 399.36C769.737 399.92 768.63 400.2 767.137 400.2Z" fill="#FFFCFC"/>
<path d="M442.194 440.2C440.381 440.2 438.994 439.62 438.034 438.46C437.074 437.3 436.594 435.48 436.594 433C436.594 430.533 437.061 428.72 437.994 427.56C438.941 426.387 440.274 425.8 441.994 425.8C443.007 425.8 443.914 425.987 444.714 426.36C445.074 426.507 445.401 426.687 445.694 426.9L444.794 428.5H444.594C444.447 428.367 444.234 428.22 443.954 428.06C443.367 427.753 442.781 427.6 442.194 427.6C441.314 427.6 440.627 428.007 440.134 428.82C439.641 429.633 439.394 431.027 439.394 433C439.394 434.987 439.647 436.387 440.154 437.2C440.674 438 441.421 438.4 442.394 438.4C443.007 438.4 443.594 438.253 444.154 437.96C444.447 437.787 444.661 437.633 444.794 437.5H444.994L445.894 439.1C445.627 439.313 445.301 439.5 444.914 439.66C444.141 440.02 443.234 440.2 442.194 440.2ZM449.497 426.8L450.297 426H452.297V430.7C452.431 430.567 452.624 430.42 452.877 430.26C453.411 429.953 453.951 429.8 454.497 429.8C455.711 429.8 456.644 430.133 457.297 430.8C457.964 431.453 458.297 432.387 458.297 433.6V440H455.497V433.6C455.497 432.973 455.364 432.5 455.097 432.18C454.831 431.86 454.464 431.7 453.997 431.7C453.557 431.7 453.137 431.9 452.737 432.3C452.604 432.46 452.457 432.66 452.297 432.9V440H449.497V426.8ZM465.901 440.2C464.728 440.2 463.815 439.92 463.161 439.36C462.521 438.787 462.201 438.033 462.201 437.1C462.201 436.1 462.561 435.32 463.281 434.76C464.015 434.187 465.155 433.9 466.701 433.9H468.101V433.6C468.101 432.893 467.948 432.387 467.641 432.08C467.335 431.76 466.855 431.6 466.201 431.6C465.641 431.6 465.128 431.733 464.661 432C464.475 432.093 464.288 432.227 464.101 432.4H463.901L463.001 430.8C463.321 430.587 463.635 430.42 463.941 430.3C464.808 429.967 465.628 429.8 466.401 429.8C467.335 429.8 468.141 429.967 468.821 430.3C469.501 430.62 470.015 431.067 470.361 431.64C470.721 432.213 470.901 432.867 470.901 433.6V440H468.901L468.701 438.8H468.601C468.375 439.093 468.148 439.327 467.921 439.5C467.361 439.967 466.688 440.2 465.901 440.2ZM466.401 438.3C466.815 438.3 467.221 438.1 467.621 437.7C467.808 437.513 467.968 437.313 468.101 437.1V435.7H466.701C465.568 435.7 465.001 436.167 465.001 437.1C465.001 437.46 465.121 437.753 465.361 437.98C465.615 438.193 465.961 438.3 466.401 438.3ZM475.402 430H477.402L477.602 431.2H477.702C477.835 431 478.062 430.767 478.382 430.5C479.009 430.033 479.682 429.8 480.402 429.8C481.615 429.8 482.549 430.133 483.202 430.8C483.869 431.453 484.202 432.387 484.202 433.6V440H481.402V433.6C481.402 432.973 481.269 432.5 481.002 432.18C480.735 431.86 480.369 431.7 479.902 431.7C479.462 431.7 479.042 431.9 478.642 432.3C478.509 432.46 478.362 432.66 478.202 432.9V440H475.402V430ZM488.706 430H490.706L490.906 431.2H491.006C491.139 431 491.366 430.767 491.686 430.5C492.313 430.033 492.986 429.8 493.706 429.8C494.919 429.8 495.853 430.133 496.506 430.8C497.173 431.453 497.506 432.387 497.506 433.6V440H494.706V433.6C494.706 432.973 494.573 432.5 494.306 432.18C494.039 431.86 493.673 431.7 493.206 431.7C492.766 431.7 492.346 431.9 491.946 432.3C491.813 432.46 491.666 432.66 491.506 432.9V440H488.706V430ZM506.41 440.2C503.076 440.2 501.41 438.467 501.41 435C501.41 433.293 501.796 432 502.57 431.12C503.343 430.24 504.423 429.8 505.81 429.8C507.183 429.8 508.256 430.227 509.03 431.08C509.816 431.933 510.21 433.173 510.21 434.8V435.3L509.61 435.9H504.21C504.21 437.567 505.01 438.4 506.61 438.4C507.17 438.4 507.683 438.267 508.15 438C508.336 437.907 508.523 437.773 508.71 437.6H508.91L509.81 439.2C509.436 439.427 509.116 439.593 508.85 439.7C508.05 440.033 507.236 440.2 506.41 440.2ZM507.41 434.1C507.41 433.3 507.25 432.687 506.93 432.26C506.623 431.82 506.25 431.6 505.81 431.6C505.37 431.6 504.99 431.82 504.67 432.26C504.363 432.687 504.21 433.3 504.21 434.1H507.41ZM514.2 440V426.8L515 426H517V440H514.2ZM443.366 465.2C441.553 465.2 440.166 464.62 439.206 463.46C438.246 462.3 437.766 460.48 437.766 458C437.766 455.533 438.233 453.72 439.166 452.56C440.113 451.387 441.446 450.8 443.166 450.8C444.179 450.8 445.086 450.987 445.886 451.36C446.246 451.507 446.573 451.687 446.866 451.9L445.966 453.5H445.766C445.619 453.367 445.406 453.22 445.126 453.06C444.539 452.753 443.953 452.6 443.366 452.6C442.486 452.6 441.799 453.007 441.306 453.82C440.813 454.633 440.566 456.027 440.566 458C440.566 459.987 440.819 461.387 441.326 462.2C441.846 463 442.593 463.4 443.566 463.4C444.179 463.4 444.766 463.253 445.326 462.96C445.619 462.787 445.833 462.633 445.966 462.5H446.166L447.066 464.1C446.799 464.313 446.473 464.5 446.086 464.66C445.313 465.02 444.406 465.2 443.366 465.2ZM450.669 455H452.669L452.869 456.2H452.969C453.102 456 453.329 455.767 453.649 455.5C454.276 455.033 454.949 454.8 455.669 454.8C456.016 454.8 456.356 454.833 456.689 454.9C456.902 454.953 457.062 454.987 457.169 455L456.769 457H456.569C456.449 456.987 456.302 456.953 456.129 456.9C455.836 456.833 455.516 456.8 455.169 456.8C454.729 456.8 454.309 457 453.909 457.4C453.776 457.56 453.629 457.76 453.469 458V465H450.669V455ZM464.76 465.2C461.426 465.2 459.76 463.467 459.76 460C459.76 458.293 460.146 457 460.92 456.12C461.693 455.24 462.773 454.8 464.16 454.8C465.533 454.8 466.606 455.227 467.38 456.08C468.166 456.933 468.56 458.173 468.56 459.8V460.3L467.96 460.9H462.56C462.56 462.567 463.36 463.4 464.96 463.4C465.52 463.4 466.033 463.267 466.5 463C466.686 462.907 466.873 462.773 467.06 462.6H467.26L468.16 464.2C467.786 464.427 467.466 464.593 467.2 464.7C466.4 465.033 465.586 465.2 464.76 465.2ZM465.76 459.1C465.76 458.3 465.6 457.687 465.28 457.26C464.973 456.82 464.6 456.6 464.16 456.6C463.72 456.6 463.34 456.82 463.02 457.26C462.713 457.687 462.56 458.3 462.56 459.1H465.76ZM475.65 465.2C474.477 465.2 473.564 464.92 472.91 464.36C472.27 463.787 471.95 463.033 471.95 462.1C471.95 461.1 472.31 460.32 473.03 459.76C473.764 459.187 474.904 458.9 476.45 458.9H477.85V458.6C477.85 457.893 477.697 457.387 477.39 457.08C477.084 456.76 476.604 456.6 475.95 456.6C475.39 456.6 474.877 456.733 474.41 457C474.224 457.093 474.037 457.227 473.85 457.4H473.65L472.75 455.8C473.07 455.587 473.384 455.42 473.69 455.3C474.557 454.967 475.377 454.8 476.15 454.8C477.084 454.8 477.89 454.967 478.57 455.3C479.25 455.62 479.764 456.067 480.11 456.64C480.47 457.213 480.65 457.867 480.65 458.6V465H478.65L478.45 463.8H478.35C478.124 464.093 477.897 464.327 477.67 464.5C477.11 464.967 476.437 465.2 475.65 465.2ZM476.15 463.3C476.564 463.3 476.97 463.1 477.37 462.7C477.557 462.513 477.717 462.313 477.85 462.1V460.7H476.45C475.317 460.7 474.75 461.167 474.75 462.1C474.75 462.46 474.87 462.753 475.11 462.98C475.364 463.193 475.71 463.3 476.15 463.3ZM489.051 465.2C487.905 465.2 486.998 464.887 486.331 464.26C485.678 463.633 485.351 462.813 485.351 461.8V456.8H484.051V455.6L487.051 452.6H488.151V455H490.451V456.8H488.151V461.8C488.151 462.333 488.251 462.733 488.451 463C488.651 463.267 488.918 463.4 489.251 463.4C489.651 463.4 490.045 463.267 490.431 463C490.605 462.88 490.778 462.747 490.951 462.6H491.151L492.051 464.2C491.705 464.427 491.405 464.593 491.151 464.7C490.431 465.033 489.731 465.2 489.051 465.2ZM499.652 465.2C496.319 465.2 494.652 463.467 494.652 460C494.652 458.293 495.039 457 495.812 456.12C496.585 455.24 497.665 454.8 499.052 454.8C500.425 454.8 501.499 455.227 502.272 456.08C503.059 456.933 503.452 458.173 503.452 459.8V460.3L502.852 460.9H497.452C497.452 462.567 498.252 463.4 499.852 463.4C500.412 463.4 500.925 463.267 501.392 463C501.579 462.907 501.765 462.773 501.952 462.6H502.152L503.052 464.2C502.679 464.427 502.359 464.593 502.092 464.7C501.292 465.033 500.479 465.2 499.652 465.2ZM500.652 459.1C500.652 458.3 500.492 457.687 500.172 457.26C499.865 456.82 499.492 456.6 499.052 456.6C498.612 456.6 498.232 456.82 497.912 457.26C497.605 457.687 497.452 458.3 497.452 459.1H500.652ZM510.843 465.2C509.643 465.2 508.676 464.76 507.943 463.88C507.209 462.987 506.843 461.693 506.843 460C506.843 458.293 507.216 457 507.963 456.12C508.723 455.24 509.749 454.8 511.043 454.8C511.323 454.8 511.563 454.827 511.763 454.88C511.976 454.933 512.216 455.007 512.483 455.1L513.043 455.4V451.8L513.843 451H515.843V465H513.843L513.643 463.8H513.543C513.316 464.093 513.089 464.327 512.863 464.5C512.303 464.967 511.629 465.2 510.843 465.2ZM511.343 463.3C511.783 463.3 512.203 463.1 512.603 462.7C512.736 462.54 512.883 462.34 513.043 462.1V457.2L512.623 456.9C512.249 456.7 511.889 456.6 511.543 456.6C510.943 456.6 510.476 456.86 510.143 457.38C509.809 457.9 509.643 458.773 509.643 460C509.643 461.16 509.796 462 510.103 462.52C510.423 463.04 510.836 463.3 511.343 463.3Z" fill="#FFFCFC"/>
<path d="M781.24 258L782.14 254.6H780.3V252.8H782.64L783.54 249.2H781.44V247.4H783.94L784.84 244H787.44L786.54 247.4H788.54L789.44 244H792.04L791.14 247.4H793.04V249.2H790.74L789.84 252.8H791.9V254.6H789.34L788.44 258H785.84L786.74 254.6H784.74L783.84 258H781.24ZM785.24 252.8H787.24L788.14 249.2H786.14L785.24 252.8ZM801.74 258.2C799.927 258.2 798.54 257.62 797.58 256.46C796.62 255.3 796.14 253.48 796.14 251C796.14 248.533 796.607 246.72 797.54 245.56C798.487 244.387 799.82 243.8 801.54 243.8C802.553 243.8 803.46 243.987 804.26 244.36C804.62 244.507 804.947 244.687 805.24 244.9L804.34 246.5H804.14C803.993 246.367 803.78 246.22 803.5 246.06C802.913 245.753 802.327 245.6 801.74 245.6C800.86 245.6 800.173 246.007 799.68 246.82C799.187 247.633 798.94 249.027 798.94 251C798.94 252.987 799.193 254.387 799.7 255.2C800.22 256 800.967 256.4 801.94 256.4C802.553 256.4 803.14 256.253 803.7 255.96C803.993 255.787 804.207 255.633 804.34 255.5H804.54L805.44 257.1C805.173 257.313 804.847 257.5 804.46 257.66C803.687 258.02 802.78 258.2 801.74 258.2ZM809.043 244.8L809.843 244H811.843V248.7C811.976 248.567 812.17 248.42 812.423 248.26C812.956 247.953 813.496 247.8 814.043 247.8C815.256 247.8 816.19 248.133 816.843 248.8C817.51 249.453 817.843 250.387 817.843 251.6V258H815.043V251.6C815.043 250.973 814.91 250.5 814.643 250.18C814.376 249.86 814.01 249.7 813.543 249.7C813.103 249.7 812.683 249.9 812.283 250.3C812.15 250.46 812.003 250.66 811.843 250.9V258H809.043V244.8ZM825.447 258.2C824.274 258.2 823.36 257.92 822.707 257.36C822.067 256.787 821.747 256.033 821.747 255.1C821.747 254.1 822.107 253.32 822.827 252.76C823.56 252.187 824.7 251.9 826.247 251.9H827.647V251.6C827.647 250.893 827.494 250.387 827.187 250.08C826.88 249.76 826.4 249.6 825.747 249.6C825.187 249.6 824.674 249.733 824.207 250C824.02 250.093 823.834 250.227 823.647 250.4H823.447L822.547 248.8C822.867 248.587 823.18 248.42 823.487 248.3C824.354 247.967 825.174 247.8 825.947 247.8C826.88 247.8 827.687 247.967 828.367 248.3C829.047 248.62 829.56 249.067 829.907 249.64C830.267 250.213 830.447 250.867 830.447 251.6V258H828.447L828.247 256.8H828.147C827.92 257.093 827.694 257.327 827.467 257.5C826.907 257.967 826.234 258.2 825.447 258.2ZM825.947 256.3C826.36 256.3 826.767 256.1 827.167 255.7C827.354 255.513 827.514 255.313 827.647 255.1V253.7H826.247C825.114 253.7 824.547 254.167 824.547 255.1C824.547 255.46 824.667 255.753 824.907 255.98C825.16 256.193 825.507 256.3 825.947 256.3ZM834.948 248H836.948L837.148 249.2H837.248C837.381 249 837.608 248.767 837.928 248.5C838.554 248.033 839.228 247.8 839.948 247.8C841.161 247.8 842.094 248.133 842.748 248.8C843.414 249.453 843.748 250.387 843.748 251.6V258H840.948V251.6C840.948 250.973 840.814 250.5 840.548 250.18C840.281 249.86 839.914 249.7 839.448 249.7C839.008 249.7 838.588 249.9 838.188 250.3C838.054 250.46 837.908 250.66 837.748 250.9V258H834.948V248ZM848.252 248H850.252L850.452 249.2H850.552C850.685 249 850.912 248.767 851.232 248.5C851.858 248.033 852.532 247.8 853.252 247.8C854.465 247.8 855.398 248.133 856.052 248.8C856.718 249.453 857.052 250.387 857.052 251.6V258H854.252V251.6C854.252 250.973 854.118 250.5 853.852 250.18C853.585 249.86 853.218 249.7 852.752 249.7C852.312 249.7 851.892 249.9 851.492 250.3C851.358 250.46 851.212 250.66 851.052 250.9V258H848.252V248ZM865.955 258.2C862.622 258.2 860.955 256.467 860.955 253C860.955 251.293 861.342 250 862.115 249.12C862.889 248.24 863.969 247.8 865.355 247.8C866.729 247.8 867.802 248.227 868.575 249.08C869.362 249.933 869.755 251.173 869.755 252.8V253.3L869.155 253.9H863.755C863.755 255.567 864.555 256.4 866.155 256.4C866.715 256.4 867.229 256.267 867.695 256C867.882 255.907 868.069 255.773 868.255 255.6H868.455L869.355 257.2C868.982 257.427 868.662 257.593 868.395 257.7C867.595 258.033 866.782 258.2 865.955 258.2ZM866.955 252.1C866.955 251.3 866.795 250.687 866.475 250.26C866.169 249.82 865.795 249.6 865.355 249.6C864.915 249.6 864.535 249.82 864.215 250.26C863.909 250.687 863.755 251.3 863.755 252.1H866.955ZM873.746 258V244.8L874.546 244H876.546V258H873.746Z" fill="#FFFCFC"/>
<path d="M513.54 244H516.34L518.34 252.8C518.393 253.053 518.433 253.313 518.46 253.58L518.5 254H518.58L518.62 253.58C518.647 253.313 518.687 253.053 518.74 252.8L520.96 244H522.92L525.14 252.8C525.207 253.067 525.247 253.327 525.26 253.58L525.3 254H525.38L525.42 253.58C525.433 253.327 525.473 253.067 525.54 252.8L527.54 244H530.06L526.66 258H524.14L522.04 249.3C521.987 249.087 521.947 248.807 521.92 248.46L521.88 248H521.8L521.76 248.46C521.733 248.807 521.693 249.087 521.64 249.3L519.54 258H516.94L513.54 244ZM537.524 258.2C536.044 258.2 534.904 257.767 534.104 256.9C533.318 256.033 532.924 254.733 532.924 253C532.924 251.267 533.318 249.967 534.104 249.1C534.904 248.233 536.044 247.8 537.524 247.8C539.004 247.8 540.138 248.233 540.924 249.1C541.724 249.967 542.124 251.267 542.124 253C542.124 254.733 541.724 256.033 540.924 256.9C540.138 257.767 539.004 258.2 537.524 258.2ZM537.524 256.4C538.724 256.4 539.324 255.267 539.324 253C539.324 250.733 538.724 249.6 537.524 249.6C536.324 249.6 535.724 250.733 535.724 253C535.724 255.267 536.324 256.4 537.524 256.4ZM546.125 248H548.125L548.325 249.2H548.425C548.558 249 548.785 248.767 549.105 248.5C549.732 248.033 550.405 247.8 551.125 247.8C551.472 247.8 551.812 247.833 552.145 247.9C552.358 247.953 552.518 247.987 552.625 248L552.225 250H552.025C551.905 249.987 551.758 249.953 551.585 249.9C551.292 249.833 550.972 249.8 550.625 249.8C550.185 249.8 549.765 250 549.365 250.4C549.232 250.56 549.085 250.76 548.925 251V258H546.125V248ZM555.816 258V244.8L556.616 244H558.616V252.3L561.216 248H564.316L561.116 252.8L564.516 258H561.416L558.616 253.3V258H555.816ZM571.111 258.2C570.058 258.2 569.071 258.033 568.151 257.7C567.804 257.58 567.424 257.413 567.011 257.2L567.911 255.6H568.111C568.364 255.76 568.604 255.893 568.831 256C569.391 256.267 570.051 256.4 570.811 256.4C571.478 256.4 571.958 256.3 572.251 256.1C572.558 255.887 572.711 255.613 572.711 255.28C572.711 254.96 572.544 254.707 572.211 254.52C571.878 254.333 571.364 254.133 570.671 253.92C569.938 253.68 569.344 253.453 568.891 253.24C568.438 253.027 568.044 252.72 567.711 252.32C567.378 251.92 567.211 251.413 567.211 250.8C567.211 249.907 567.564 249.187 568.271 248.64C568.978 248.08 570.024 247.8 571.411 247.8C572.251 247.8 573.158 247.967 574.131 248.3C574.464 248.42 574.824 248.587 575.211 248.8L574.311 250.4H574.111C573.871 250.227 573.644 250.093 573.431 250C572.871 249.733 572.264 249.6 571.611 249.6C571.091 249.6 570.691 249.7 570.411 249.9C570.144 250.087 570.011 250.32 570.011 250.6C570.011 250.907 570.171 251.153 570.491 251.34C570.824 251.527 571.344 251.733 572.051 251.96C572.758 252.187 573.344 252.413 573.811 252.64C574.278 252.853 574.678 253.16 575.011 253.56C575.344 253.96 575.511 254.467 575.511 255.08C575.511 256.04 575.151 256.8 574.431 257.36C573.711 257.92 572.604 258.2 571.111 258.2ZM579.318 248H581.318L581.518 249.2H581.618C581.751 249 581.978 248.767 582.298 248.5C582.925 248.033 583.598 247.8 584.318 247.8C585.518 247.8 586.485 248.247 587.218 249.14C587.951 250.02 588.318 251.307 588.318 253C588.318 254.707 587.938 256 587.178 256.88C586.431 257.76 585.411 258.2 584.118 258.2C583.571 258.2 583.085 258.1 582.658 257.9C582.445 257.82 582.265 257.72 582.118 257.6V261.2L581.318 262H579.318V248ZM583.618 256.4C584.218 256.4 584.685 256.14 585.018 255.62C585.351 255.1 585.518 254.227 585.518 253C585.518 251.84 585.358 251 585.038 250.48C584.731 249.96 584.325 249.7 583.818 249.7C583.378 249.7 582.958 249.9 582.558 250.3C582.425 250.46 582.278 250.66 582.118 250.9V255.8C582.265 255.92 582.405 256.02 582.538 256.1C582.858 256.3 583.218 256.4 583.618 256.4ZM595.409 258.2C594.236 258.2 593.323 257.92 592.669 257.36C592.029 256.787 591.709 256.033 591.709 255.1C591.709 254.1 592.069 253.32 592.789 252.76C593.523 252.187 594.663 251.9 596.209 251.9H597.609V251.6C597.609 250.893 597.456 250.387 597.149 250.08C596.843 249.76 596.363 249.6 595.709 249.6C595.149 249.6 594.636 249.733 594.169 250C593.983 250.093 593.796 250.227 593.609 250.4H593.409L592.509 248.8C592.829 248.587 593.143 248.42 593.449 248.3C594.316 247.967 595.136 247.8 595.909 247.8C596.843 247.8 597.649 247.967 598.329 248.3C599.009 248.62 599.523 249.067 599.869 249.64C600.229 250.213 600.409 250.867 600.409 251.6V258H598.409L598.209 256.8H598.109C597.883 257.093 597.656 257.327 597.429 257.5C596.869 257.967 596.196 258.2 595.409 258.2ZM595.909 256.3C596.323 256.3 596.729 256.1 597.129 255.7C597.316 255.513 597.476 255.313 597.609 255.1V253.7H596.209C595.076 253.7 594.509 254.167 594.509 255.1C594.509 255.46 594.629 255.753 594.869 255.98C595.123 256.193 595.469 256.3 595.909 256.3ZM609.21 258.2C605.943 258.2 604.31 256.467 604.31 253C604.31 251.267 604.71 249.967 605.51 249.1C606.31 248.233 607.477 247.8 609.01 247.8C609.77 247.8 610.583 247.967 611.45 248.3C611.717 248.407 612.037 248.573 612.41 248.8L611.51 250.4H611.31C611.123 250.227 610.937 250.093 610.75 250C610.283 249.733 609.77 249.6 609.21 249.6C608.53 249.6 608.01 249.86 607.65 250.38C607.29 250.887 607.11 251.76 607.11 253C607.11 254.253 607.297 255.133 607.67 255.64C608.043 256.147 608.623 256.4 609.41 256.4C609.97 256.4 610.483 256.267 610.95 256C611.137 255.907 611.323 255.773 611.51 255.6H611.71L612.61 257.2C612.237 257.427 611.917 257.593 611.65 257.7C610.85 258.033 610.037 258.2 609.21 258.2ZM620.602 258.2C617.269 258.2 615.602 256.467 615.602 253C615.602 251.293 615.989 250 616.762 249.12C617.536 248.24 618.616 247.8 620.002 247.8C621.376 247.8 622.449 248.227 623.222 249.08C624.009 249.933 624.402 251.173 624.402 252.8V253.3L623.802 253.9H618.402C618.402 255.567 619.202 256.4 620.802 256.4C621.362 256.4 621.876 256.267 622.342 256C622.529 255.907 622.716 255.773 622.902 255.6H623.102L624.002 257.2C623.629 257.427 623.309 257.593 623.042 257.7C622.242 258.033 621.429 258.2 620.602 258.2ZM621.602 252.1C621.602 251.3 621.442 250.687 621.122 250.26C620.816 249.82 620.442 249.6 620.002 249.6C619.562 249.6 619.182 249.82 618.862 250.26C618.556 250.687 618.402 251.3 618.402 252.1H621.602Z" fill="#FFFCFC"/>
<path d="M272.696 258V244H275.496V256.2H280.896V258H272.696ZM287.903 258.2C286.423 258.2 285.283 257.767 284.483 256.9C283.696 256.033 283.303 254.733 283.303 253C283.303 251.267 283.696 249.967 284.483 249.1C285.283 248.233 286.423 247.8 287.903 247.8C289.383 247.8 290.516 248.233 291.303 249.1C292.103 249.967 292.503 251.267 292.503 253C292.503 254.733 292.103 256.033 291.303 256.9C290.516 257.767 289.383 258.2 287.903 258.2ZM287.903 256.4C289.103 256.4 289.703 255.267 289.703 253C289.703 250.733 289.103 249.6 287.903 249.6C286.703 249.6 286.103 250.733 286.103 253C286.103 255.267 286.703 256.4 287.903 256.4ZM300.204 262.2C299.31 262.2 298.464 262.033 297.664 261.7C297.357 261.58 297.037 261.413 296.704 261.2L297.604 259.6H297.804C297.977 259.747 298.17 259.88 298.384 260C298.85 260.267 299.39 260.4 300.004 260.4C300.657 260.4 301.17 260.207 301.544 259.82C301.917 259.447 302.104 258.907 302.104 258.2V257.6C301.917 257.733 301.73 257.833 301.544 257.9C301.064 258.1 300.584 258.2 300.104 258.2C298.81 258.2 297.784 257.76 297.024 256.88C296.277 256 295.904 254.707 295.904 253C295.904 251.307 296.27 250.02 297.004 249.14C297.737 248.247 298.704 247.8 299.904 247.8C300.624 247.8 301.297 248.033 301.924 248.5C302.19 248.727 302.417 248.96 302.604 249.2H302.704L302.904 248H304.904V258.2C304.904 258.973 304.717 259.66 304.344 260.26C303.97 260.873 303.43 261.347 302.724 261.68C302.017 262.027 301.177 262.2 300.204 262.2ZM300.604 256.4C301.004 256.4 301.364 256.3 301.684 256.1C301.83 256.02 301.97 255.92 302.104 255.8V250.9C301.944 250.66 301.797 250.46 301.664 250.3C301.264 249.9 300.844 249.7 300.404 249.7C299.897 249.7 299.484 249.96 299.164 250.48C298.857 251 298.704 251.84 298.704 253C298.704 254.227 298.87 255.1 299.204 255.62C299.537 256.14 300.004 256.4 300.604 256.4ZM310.895 246.7C310.495 246.7 310.142 246.553 309.835 246.26C309.542 245.953 309.395 245.6 309.395 245.2C309.395 244.8 309.542 244.453 309.835 244.16C310.142 243.853 310.495 243.7 310.895 243.7C311.295 243.7 311.642 243.853 311.935 244.16C312.242 244.453 312.395 244.8 312.395 245.2C312.395 245.6 312.242 245.953 311.935 246.26C311.642 246.553 311.295 246.7 310.895 246.7ZM309.495 258V248H312.295V258H309.495ZM316.9 248H318.9L319.1 249.2H319.2C319.334 249 319.56 248.767 319.88 248.5C320.507 248.033 321.18 247.8 321.9 247.8C323.114 247.8 324.047 248.133 324.7 248.8C325.367 249.453 325.7 250.387 325.7 251.6V258H322.9V251.6C322.9 250.973 322.767 250.5 322.5 250.18C322.234 249.86 321.867 249.7 321.4 249.7C320.96 249.7 320.54 249.9 320.14 250.3C320.007 250.46 319.86 250.66 319.7 250.9V258H316.9V248Z" fill="#FFFCFC"/>
<path d="M490.768 261.768C491.744 260.791 491.744 259.209 490.768 258.232L474.858 242.322C473.882 241.346 472.299 241.346 471.322 242.322C470.346 243.299 470.346 244.882 471.322 245.858L485.464 260L471.322 274.142C470.346 275.118 470.346 276.701 471.322 277.678C472.299 278.654 473.882 278.654 474.858 277.678L490.768 261.768ZM376 262.5H489V257.5H376V262.5Z" fill="black"/>
<path d="M1009.48 408.759C1010.48 409.714 1012.06 409.681 1013.02 408.684L1028.59 392.442C1029.54 391.445 1029.51 389.862 1028.51 388.907C1027.52 387.951 1025.93 387.985 1024.98 388.982L1011.14 403.42L996.701 389.58C995.704 388.624 994.121 388.658 993.166 389.654C992.21 390.651 992.244 392.234 993.241 393.189L1009.48 408.759ZM1005.5 255.053L1008.71 407.007L1013.71 406.901L1010.5 254.947L1005.5 255.053Z" fill="black"/>
<path d="M805.904 386.638C804.929 387.616 804.931 389.199 805.909 390.174L821.84 406.062C822.818 407.037 824.401 407.035 825.376 406.058C826.351 405.08 826.349 403.497 825.371 402.522L811.21 388.399L825.333 374.238C826.308 373.26 826.306 371.677 825.329 370.702C824.351 369.727 822.768 369.729 821.793 370.707L805.904 386.638ZM854.497 385.841L807.671 385.904L807.678 390.904L854.503 390.841L854.497 385.841Z" fill="black"/>
<path d="M810.268 502.386C809.272 503.342 809.24 504.925 810.196 505.92L825.783 522.147C826.739 523.143 828.322 523.175 829.317 522.219C830.313 521.262 830.345 519.68 829.389 518.684L815.534 504.26L829.958 490.405C830.954 489.449 830.986 487.866 830.03 486.871C829.073 485.875 827.491 485.843 826.495 486.799L810.268 502.386ZM856.244 502.579L812.05 501.689L811.949 506.688L856.143 507.578L856.244 502.579Z" fill="black"/>
<path d="M318.587 226.4C319.574 227.365 321.157 227.347 322.122 226.36L337.851 210.271C338.816 209.284 338.799 207.701 337.811 206.736C336.824 205.771 335.241 205.789 334.276 206.776L320.295 221.077L305.994 207.095C305.006 206.13 303.423 206.148 302.458 207.135C301.493 208.123 301.511 209.705 302.498 210.671L318.587 226.4ZM317.5 195.028L317.835 224.64L322.834 224.584L322.5 194.972L317.5 195.028Z" fill="black"/>
<path d="M758.768 261.768C759.744 260.791 759.744 259.209 758.768 258.232L742.858 242.322C741.882 241.346 740.299 241.346 739.322 242.322C738.346 243.299 738.346 244.882 739.322 245.858L753.464 260L739.322 274.142C738.346 275.118 738.346 276.701 739.322 277.678C740.299 278.654 741.882 278.654 742.858 277.678L758.768 261.768ZM644 262.5H757V257.5H644V262.5Z" fill="black"/>
<path d="M918 257.5H1007.5M477 383.5H650M477 507.5L654.5 507" stroke="black" stroke-width="5"/>
<path d="M850 443L937.996 443.813" stroke="black" stroke-width="5"/>
<path d="M852 388V445" stroke="black" stroke-width="5"/>
<path d="M852 445L853.967 505.001" stroke="black" stroke-width="5"/>
<path d="M477.475 413.767C478.452 414.743 480.035 414.743 481.011 413.767L496.921 397.857C497.897 396.881 497.897 395.298 496.921 394.321C495.945 393.345 494.362 393.345 493.385 394.321L479.243 408.464L465.101 394.321C464.125 393.345 462.542 393.345 461.566 394.321C460.589 395.298 460.589 396.881 461.566 397.857L477.475 413.767ZM476.743 382L476.743 411.999L481.743 411.999L481.743 382L476.743 382Z" fill="black"/>
<path d="M480.964 478.243C479.993 477.261 478.41 477.251 477.428 478.221L461.42 494.033C460.438 495.003 460.428 496.586 461.399 497.568C462.369 498.551 463.952 498.56 464.934 497.59L479.163 483.535L493.218 497.765C494.188 498.747 495.771 498.757 496.753 497.786C497.736 496.816 497.745 495.233 496.775 494.251L480.964 478.243ZM481.5 510.015L481.685 480.015L476.685 479.985L476.5 509.984L481.5 510.015Z" fill="black"/>
<path d="M254.87 176V160.6H264.11V162.58H257.95V166.98H262.79V168.96H257.95V174.02H264.11V176H254.87ZM268.186 165H270.386L270.606 166.32H270.716C270.863 166.1 271.112 165.843 271.464 165.55C272.153 165.037 272.894 164.78 273.686 164.78C275.021 164.78 276.047 165.147 276.766 165.88C277.499 166.599 277.866 167.625 277.866 168.96V176H274.786V168.96C274.786 168.271 274.639 167.75 274.346 167.398C274.053 167.046 273.649 166.87 273.136 166.87C272.652 166.87 272.19 167.09 271.75 167.53C271.603 167.706 271.442 167.926 271.266 168.19V176H268.186V165ZM287.11 176.22C285.849 176.22 284.852 175.875 284.118 175.186C283.4 174.497 283.04 173.595 283.04 172.48V166.98H281.61V165.66L284.91 162.36H286.12V165H288.65V166.98H286.12V172.48C286.12 173.067 286.23 173.507 286.45 173.8C286.67 174.093 286.964 174.24 287.33 174.24C287.77 174.24 288.203 174.093 288.628 173.8C288.819 173.668 289.01 173.521 289.2 173.36H289.42L290.41 175.12C290.029 175.369 289.699 175.553 289.42 175.67C288.628 176.037 287.858 176.22 287.11 176.22ZM293.931 165H296.131L296.351 166.32H296.461C296.608 166.1 296.857 165.843 297.209 165.55C297.899 165.037 298.639 164.78 299.431 164.78C299.813 164.78 300.187 164.817 300.553 164.89C300.788 164.949 300.964 164.985 301.081 165L300.641 167.2H300.421C300.289 167.185 300.128 167.149 299.937 167.09C299.615 167.017 299.263 166.98 298.881 166.98C298.397 166.98 297.935 167.2 297.495 167.64C297.349 167.816 297.187 168.036 297.011 168.3V176H293.931V165ZM306.241 180.62C305.654 180.62 305.082 180.51 304.525 180.29C304.246 180.202 304.012 180.092 303.821 179.96L304.591 178.09H304.811C304.958 178.237 305.075 178.332 305.163 178.376C305.442 178.552 305.728 178.64 306.021 178.64C306.373 178.64 306.696 178.508 306.989 178.244C307.282 177.98 307.495 177.599 307.627 177.1L307.935 176H307.099L303.469 165H306.351L308.551 172.15C308.61 172.385 308.654 172.641 308.683 172.92L308.727 173.36H308.815L308.859 172.92C308.888 172.641 308.932 172.385 308.991 172.15L310.861 165H313.941L310.311 177.1C309.578 179.447 308.221 180.62 306.241 180.62ZM326.584 160.6H330.984C333.052 160.6 334.555 161.025 335.494 161.876C336.447 162.727 336.924 164.025 336.924 165.77C336.924 167.515 336.447 168.813 335.494 169.664C334.555 170.515 333.052 170.94 330.984 170.94H329.664V176H326.584V160.6ZM330.984 168.96C331.996 168.96 332.722 168.718 333.162 168.234C333.617 167.735 333.844 166.914 333.844 165.77C333.844 164.626 333.617 163.812 333.162 163.328C332.722 162.829 331.996 162.58 330.984 162.58H329.664V168.96H330.984ZM345.718 176.22C344.09 176.22 342.836 175.743 341.956 174.79C341.091 173.837 340.658 172.407 340.658 170.5C340.658 168.593 341.091 167.163 341.956 166.21C342.836 165.257 344.09 164.78 345.718 164.78C347.346 164.78 348.593 165.257 349.458 166.21C350.338 167.163 350.778 168.593 350.778 170.5C350.778 172.407 350.338 173.837 349.458 174.79C348.593 175.743 347.346 176.22 345.718 176.22ZM345.718 174.24C347.038 174.24 347.698 172.993 347.698 170.5C347.698 168.007 347.038 166.76 345.718 166.76C344.398 166.76 343.738 168.007 343.738 170.5C343.738 172.993 344.398 174.24 345.718 174.24ZM356.719 163.57C356.279 163.57 355.89 163.409 355.553 163.086C355.23 162.749 355.069 162.36 355.069 161.92C355.069 161.48 355.23 161.099 355.553 160.776C355.89 160.439 356.279 160.27 356.719 160.27C357.159 160.27 357.54 160.439 357.863 160.776C358.2 161.099 358.369 161.48 358.369 161.92C358.369 162.36 358.2 162.749 357.863 163.086C357.54 163.409 357.159 163.57 356.719 163.57ZM355.179 176V165H358.259V176H355.179ZM363.325 165H365.525L365.745 166.32H365.855C366.002 166.1 366.251 165.843 366.603 165.55C367.292 165.037 368.033 164.78 368.825 164.78C370.16 164.78 371.186 165.147 371.905 165.88C372.638 166.599 373.005 167.625 373.005 168.96V176H369.925V168.96C369.925 168.271 369.778 167.75 369.485 167.398C369.192 167.046 368.788 166.87 368.275 166.87C367.791 166.87 367.329 167.09 366.889 167.53C366.742 167.706 366.581 167.926 366.405 168.19V176H363.325V165ZM382.249 176.22C380.988 176.22 379.99 175.875 379.257 175.186C378.538 174.497 378.179 173.595 378.179 172.48V166.98H376.749V165.66L380.049 162.36H381.259V165H383.789V166.98H381.259V172.48C381.259 173.067 381.369 173.507 381.589 173.8C381.809 174.093 382.102 174.24 382.469 174.24C382.909 174.24 383.342 174.093 383.767 173.8C383.958 173.668 384.148 173.521 384.339 173.36H384.559L385.549 175.12C385.168 175.369 384.838 175.553 384.559 175.67C383.767 176.037 382.997 176.22 382.249 176.22Z" fill="black"/>
</svg>
